<?xml version="1.0" standalone="no"?>
<!DOCTYPE svg PUBLIC "-//W3C//DTD SVG 1.1//EN" "http://www.w3.org/Graphics/SVG/1.1/DTD/svg11.dtd" >
<svg xmlns="http://www.w3.org/2000/svg">
<metadata>Generated by IcoMoon</metadata>
<defs>
<font id="icomoon" horiz-adv-x="1024">
<font-face units-per-em="1024" ascent="960" descent="-64" />
<missing-glyph horiz-adv-x="1024" />
<glyph unicode="&#x20;" horiz-adv-x="512" d="" />
<glyph unicode="&#xe900;" glyph-name="calculation" d="M1024 840c0 66.172-53.828 120-120 120-24.258 0-695.336 0-784 0-66.172 0-120-53.828-120-120v-784c0-66.172 53.828-120 120-120h784c66.172 0 120 53.828 120 120 0 24.258 0 695.336 0 784zM944 840v-352h-392v392h352c22.055 0 40-17.945 40-40zM120 880h352v-392h-392v352c0 22.055 17.945 40 40 40zM80 56v352h392v-392h-352c-22.055 0-40 17.945-40 40zM904 16h-352v392h392v-352c0-22.055-17.945-40-40-40zM157.336 684c0 22.094 17.906 40 40 40h38.664v38.664c0 22.094 17.906 40 40 40s40-17.906 40-40v-38.664h38.664c22.094 0 40-17.906 40-40s-17.906-40-40-40h-38.664v-38.664c0-22.094-17.906-40-40-40s-40 17.906-40 40v38.664h-38.664c-22.094 0-40 17.906-40 40zM664.094 711.344c-15.625 15.617-15.625 40.945 0 56.563 15.617 15.625 40.945 15.625 56.563 0l27.344-27.336 27.344 27.336c15.617 15.625 40.945 15.625 56.563 0 15.625-15.617 15.625-40.945 0-56.563l-27.336-27.344 27.336-27.344c15.625-15.617 15.625-40.945 0-56.563-15.617-15.625-40.945-15.625-56.563 0l-27.344 27.336-27.344-27.336c-15.617-15.625-40.945-15.625-56.563 0-15.625 15.617-15.625 40.945 0 56.563l27.336 27.344zM394.664 212c0-22.094-17.906-40-40-40h-157.328c-22.094 0-40 17.906-40 40s17.906 40 40 40h157.336c22.086 0 39.992-17.906 39.992-40zM866.664 133.336c0-22.094-17.906-40-40-40h-157.328c-22.094 0-40 17.906-40 40s17.906 40 40 40h157.328c22.094 0 40-17.906 40-40zM866.664 290.664c0-22.094-17.906-40-40-40h-157.328c-22.094 0-40 17.906-40 40s17.906 40 40 40h157.328c22.094 0 40-17.906 40-40z" />
<glyph unicode="&#xe901;" glyph-name="details--icon" d="M306.509 495.36c-4.813 0-9.293-1.869-12.698-5.274-3.405-3.379-5.274-7.91-5.274-12.698 0-4.813 1.869-9.318 5.274-12.698l58.701-58.701c3.405-3.43 7.885-5.299 12.698-5.299s9.344 1.869 12.8 5.299l117.376 117.376c3.405 3.379 5.274 7.885 5.274 12.698s-1.869 9.318-5.274 12.698c-7.014 7.014-18.458 7.040-25.498 0.026l-104.678-104.755-45.978 46.029c-3.405 3.43-7.91 5.299-12.723 5.299zM469.888 313.907l-104.678-104.755-45.978 45.978c-3.405 3.379-7.91 5.274-12.698 5.274-4.813 0-9.293-1.869-12.698-5.274-3.405-3.379-5.274-7.91-5.274-12.698s1.869-9.318 5.274-12.698l58.701-58.701c3.405-3.379 7.885-5.222 12.672-5.222 4.813 0 9.344 1.869 12.8 5.299l117.376 117.376c3.405 3.379 5.274 7.885 5.274 12.698s-1.869 9.318-5.274 12.698c-7.040 7.014-18.432 7.040-25.498 0.026zM600.064 459.366h117.453c9.907 0 17.971 8.090 17.971 17.971 0 9.907-8.090 17.971-17.971 17.971h-117.453c-9.907 0-17.971-8.090-17.971-17.971 0.026-9.882 8.064-17.971 17.971-17.971zM600.064 224.512h117.453c9.907 0 17.971 8.090 17.971 17.971s-8.090 17.971-17.971 17.971h-117.453c-9.907 0-17.971-8.090-17.971-17.971 0.026-9.882 8.064-17.971 17.971-17.971zM805.581 788.915h-128.819v40.755c0 9.907-8.090 17.971-17.971 17.971h-71.731l-2.688 7.552c-10.88 30.592-39.962 51.149-72.371 51.149s-61.491-20.557-72.371-51.149l-2.662-7.578h-71.757c-9.907 0-17.971-8.090-17.971-17.971v-40.73h-128.794c-26.112 0-47.334-21.222-47.334-47.334v-704.589c0-26.112 21.222-47.334 47.334-47.334h587.136c26.112 0 47.334 21.222 47.334 47.334v704.589c0 26.112-21.222 47.334-47.334 47.334zM471.245 829.67c0 22.451 18.304 40.73 40.755 40.73s40.73-18.278 40.73-40.73c0-9.907 8.090-17.971 17.971-17.971h70.118v-81.485h-257.638v81.485h70.118c9.882-0.026 17.946 8.038 17.946 17.971zM365.21 694.246h293.581c9.907 0 17.971 8.090 17.971 17.971v40.755h140.186v-727.373h-609.92v727.373h140.186v-40.73c0-9.933 8.090-17.997 17.997-17.997z" />
<glyph unicode="&#xe902;" glyph-name="menu--icon" horiz-adv-x="1536" d="M70.528 818.112h1395.072c31.424 0 56.832 25.472 56.832 56.832 0 31.424-25.408 57.024-56.832 57.024h-1395.072c-31.424 0-57.024-25.6-57.024-57.024s25.6-56.832 57.024-56.832v0zM70.528 391.040h1395.072c31.424 0 56.832 25.472 56.832 56.832 0 31.424-25.408 57.024-56.832 57.024h-1395.072c-31.424 0-57.024-25.6-57.024-57.024 0-31.36 25.6-56.832 57.024-56.832v0zM70.528-36.032h1395.072c31.424 0 56.832 25.472 56.832 56.832 0 31.424-25.408 57.024-56.832 57.024h-1395.072c-31.424 0-57.024-25.6-57.024-57.024s25.6-56.832 57.024-56.832v0z" />
<glyph unicode="&#xe903;" glyph-name="Online-chat--Icon" d="M854.983 778.638c-90.965 91.022-211.911 141.084-340.48 141.084s-249.458-50.176-340.423-141.084c-172.885-172.885-187.221-454.656-33.564-643.698-13.767-26.624-36.693-59.847-70.315-76.402-20.48-10.069-31.858-31.972-28.388-54.443 3.527-22.585 20.935-40.107 43.406-43.577 12.231-1.934 25.202-2.901 38.684-2.901 41.358 0 103.595 9.5 167.31 54.044 68.494-36.068 145.522-55.068 223.118-55.068 128.796 0 249.856 50.176 340.821 141.084 91.022 90.965 141.084 211.911 141.084 340.48 0.057 128.398-50.062 249.344-141.255 340.48zM212.082 124.359c2.958 7.225 3.584 14.905 1.934 21.163-0.74 7.054-3.755 13.995-8.42 19.456-144.156 162.816-136.533 410.852 17.294 564.622 77.767 77.767 181.305 120.604 291.556 120.604s213.732-42.837 291.385-120.604c77.824-77.767 120.718-181.248 120.775-291.499 0-110.194-42.78-213.675-120.548-291.499-132.779-132.836-338.546-159.118-500.224-64.171-5.461 3.243-11.492 4.779-17.522 4.779-8.59 0-17.124-3.186-23.666-9.387-1.024-0.683-1.934-1.365-2.276-1.764-42.041-32.597-83.513-44.544-115.94-48.071 32.028 29.867 53.020 67.755 65.65 96.37zM559.502 441.97c0-22.747-18.44-41.188-41.188-41.188s-41.188 18.44-41.188 41.188c0 22.747 18.44 41.188 41.188 41.188s41.188-18.44 41.188-41.188zM732.501 441.97c0-22.747-18.44-41.188-41.188-41.188s-41.188 18.44-41.188 41.188c0 22.747 18.44 41.188 41.188 41.188s41.188-18.44 41.188-41.188zM386.617 441.97c0-22.747-18.44-41.188-41.188-41.188s-41.188 18.44-41.188 41.188c0 22.747 18.44 41.188 41.188 41.188s41.188-18.44 41.188-41.188z" />
<glyph unicode="&#xe904;" glyph-name="Register--Icon" d="M773.689 640.512c0 144.782-117.76 262.599-262.599 262.599s-262.599-117.817-262.599-262.599c0-89.714 45.227-169.017 114.005-216.405-64.228-22.187-123.108-58.766-172.601-108.26-85.732-85.788-133.006-199.851-133.006-321.195h70.997c0 211.342 171.918 383.26 383.26 383.26 144.782 0 262.542 117.817 262.542 262.599zM511.090 448.91c-105.643 0-191.602 85.959-191.602 191.602s85.959 191.602 191.602 191.602 191.602-85.959 191.602-191.602-85.902-191.602-191.602-191.602zM818.062 214.699v149.049h-70.94v-149.049h-149.049v-70.997h149.049v-149.049h70.94v149.049h149.049v70.997z" />
<glyph unicode="&#xe905;" glyph-name="search--icon" d="M995.84 22.477l-238.49 238.49c59.136 72.090 94.72 164.403 94.72 265.011 0 230.81-187.29 418.048-418.048 418.048-230.963 0-418.048-187.29-418.048-418.048s187.085-418.048 418.048-418.048c100.608 0 192.717 35.43 264.806 94.566l238.49-238.285c16.179-16.179 42.342-16.179 58.522 0 16.23 15.923 16.23 42.24 0 58.266v0zM434.074 191.078c-184.832 0-335.053 150.221-335.053 334.848s150.221 335.053 335.053 335.053c184.627 0 335.053-150.426 335.053-335.053s-150.426-334.848-335.053-334.848v0z" />
<glyph unicode="&#xe906;" glyph-name="testimonials--icon" horiz-adv-x="1243" d="M1081.49 929.865h-919.625c-49.408 0-89.637-40.192-89.637-89.637v-537.71c0-49.445 40.192-89.637 89.637-89.637h52.407v-221.221c0-10.35 6.217-19.639 15.762-23.625 3.145-1.317 6.473-1.938 9.765-1.938 6.656 0 13.202 2.597 18.066 7.497l239.323 239.323h584.302c49.408 0 89.637 40.192 89.637 89.637v537.71c0 49.371-40.192 89.6-89.637 89.6zM1120.037 302.519c0-21.248-17.298-38.51-38.51-38.51h-594.907c-6.619 0-12.617-2.523-17.152-6.656-0.037-0.037-0.073-0.073-0.11-0.11-0.329-0.293-0.622-0.549-0.914-0.878l-203.008-203.008v185.088c0 0.878-0.037 1.682-0.146 2.377-1.207 12.983-12.105 23.186-25.417 23.186h-77.934c-21.248 0-38.51 17.298-38.51 38.51v537.71c0 21.248 17.298 38.51 38.51 38.51h919.625c21.248 0 38.51-17.298 38.51-38.51l-0.037-537.71zM296.704 658.688h148.955c14.117 0 25.563 11.447 25.563 25.563s-11.447 25.563-25.563 25.563h-148.955c-14.117 0-25.563-11.447-25.563-25.563 0.037-14.117 11.447-25.563 25.563-25.563zM296.704 445.55h414.574c14.117 0 25.563 11.447 25.563 25.563s-11.447 25.563-25.563 25.563h-414.574c-14.117 0-25.563-11.447-25.563-25.563 0.037-14.117 11.447-25.563 25.563-25.563zM946.688 709.815h-351.781c-14.117 0-25.563-11.447-25.563-25.563s11.447-25.563 25.563-25.563h351.781c14.117 0 25.563 11.447 25.563 25.563-0.037 14.117-11.483 25.563-25.563 25.563zM946.688 496.64h-92.526c-14.117 0-25.563-11.447-25.563-25.563s11.447-25.563 25.563-25.563h92.526c14.117 0 25.563 11.447 25.563 25.563s-11.483 25.563-25.563 25.563z" />
<glyph unicode="&#xe907;" glyph-name="home" d="M1024 369.556l-512 397.426-512-397.428v162.038l512 397.426 512-397.428zM896 384v-384h-256v256h-256v-256h-256v384l384 288z" />
<glyph unicode="&#xe908;" glyph-name="users" d="M938.906 185.361l-163.038 81.51c-15.377 7.697-24.934 23.159-24.934 40.363v57.702c3.908 4.779 8.021 10.223 12.271 16.23 21.146 29.867 38.093 63.113 50.415 98.97 24.081 11.042 39.714 34.85 39.714 61.73v68.267c0 16.435-6.144 32.358-17.067 44.8v90.778c0.956 9.387 4.71 65.263-35.703 111.36-35.055 39.987-91.938 60.262-169.097 60.262s-134.042-20.275-169.097-60.245c-24.491-27.938-32.734-59.409-35.226-82.005-29.252 15.121-63.727 22.784-102.878 22.784-177.306 0-187.631-151.125-187.733-153.6v-78.148c-11.059-12.049-17.067-25.958-17.067-39.765v-58.948c0-18.415 8.243-35.584 22.374-47.189 14.080-53.077 48.708-93.184 62.191-107.264v-46.814c0-13.431-7.305-25.754-19.985-32.683l-113.545-71.219c-43.486-23.723-70.502-69.239-70.502-118.767v-64.802h1024v69.001c0 58.675-32.614 111.445-85.094 137.694zM238.933 50.995v-38.195h-204.8v30.669c0 37.035 20.207 71.066 53.606 89.31l113.527 71.219c22.75 12.407 36.881 36.198 36.881 62.14v61.286l-5.427 5.069c-0.444 0.41-45.79 43.247-59.187 101.632l-1.553 6.758-5.837 3.755c-7.851 5.086-12.544 13.602-12.544 22.767v58.948c0 6.144 4.181 13.449 11.452 20.036l5.615 5.069-0.034 91.819c0.307 4.898 9.199 120.457 153.634 120.457 40.841 0 75.23-9.438 102.4-28.058v-80.742c-10.923-12.442-17.067-28.365-17.067-44.8v-68.267c0-5.188 0.597-10.291 1.724-15.241 0.461-1.98 1.382-3.789 2.014-5.7 0.939-2.867 1.69-5.82 3.004-8.533 0.017-0.034 0.034-0.051 0.051-0.085 4.369-9.011 10.735-17.067 18.756-23.501 0.085-0.324 0.188-0.614 0.273-0.922 1.024-3.908 2.099-7.799 3.26-11.605l1.382-4.454c0.239-0.785 0.529-1.587 0.785-2.372 0.597-1.843 1.178-3.669 1.792-5.478 1.024-2.987 2.099-6.076 3.345-9.438 0.529-1.399 1.109-2.662 1.655-4.045 1.399-3.567 2.799-7.014 4.267-10.428 0.358-0.819 0.666-1.707 1.024-2.509l0.956-2.15c0.444-0.99 0.905-1.877 1.348-2.85 1.673-3.652 3.311-7.185 5.018-10.598 0.273-0.546 0.529-1.143 0.802-1.69 1.075-2.133 2.15-4.147 3.226-6.195 1.843-3.516 3.652-6.827 5.461-10.035 0.887-1.57 1.758-3.106 2.628-4.591 2.458-4.198 4.796-8.055 7.066-11.639 0.495-0.768 0.973-1.57 1.451-2.304 4.13-6.4 7.714-11.588 10.684-15.633 0.785-1.075 1.468-1.997 2.133-2.901 0.375-0.495 0.887-1.212 1.212-1.655v-56.474c0-16.521-9.011-31.676-23.501-39.595l-45.158-24.627-7.868 0.7-3.209-6.741-96.017-52.378c-49.493-27.034-80.23-78.814-80.23-135.202zM989.867 12.8h-716.8v38.195c0 43.878 23.927 84.207 62.447 105.199l152.252 83.046c25.481 13.909 41.301 40.585 41.301 69.581v68.591l-3.311 3.959-0.649 0.768c-0.034 0.051-1.092 1.331-2.816 3.584-0.102 0.137-0.205 0.273-0.324 0.41-0.905 1.178-1.963 2.594-3.174 4.284-0.017 0.034-0.034 0.051-0.051 0.085-2.543 3.533-5.734 8.124-9.284 13.653-0.085 0.119-0.154 0.256-0.239 0.375-1.673 2.611-3.447 5.461-5.257 8.482-0.137 0.222-0.273 0.444-0.41 0.683-3.857 6.468-7.953 13.79-12.032 21.897 0 0-0.017 0.017-0.017 0.034-2.167 4.352-4.335 8.926-6.451 13.687v0c-0.29 0.666-0.597 1.314-0.887 1.98v0c-0.939 2.133-1.877 4.369-2.833 6.673-0.341 0.836-0.683 1.707-1.024 2.56-0.887 2.236-1.792 4.489-2.748 7.066-1.741 4.642-3.379 9.489-4.949 14.49l-0.939 3.038c-0.102 0.341-0.222 0.683-0.324 1.041-1.604 5.393-3.14 10.906-4.437 16.572l-1.553 6.758-5.82 3.755c-9.899 6.383-15.804 17.084-15.804 28.621v68.267c0 9.574 4.062 18.5 11.435 25.173l5.632 5.069v112.333l-0.461 0.358c-0.58 12.322 0.154 50.091 27.699 81.51 28.279 32.273 76.544 48.623 143.428 48.623 66.645 0 114.807-16.23 143.121-48.265 33.229-37.564 27.733-85.623 27.699-86.033l-0.154-108.527 5.632-5.086c7.373-6.656 11.435-15.582 11.435-25.156v-68.267c0-14.899-9.762-27.938-24.269-32.41l-8.499-2.611-2.731-8.448c-11.418-35.516-27.682-68.318-48.367-97.502-5.069-7.185-10.001-13.551-14.285-18.415l-4.25-4.847v-70.4c0-30.208 16.777-57.361 43.793-70.878l163.038-81.51c40.858-20.429 66.236-61.491 66.236-107.179v-34.867z" />
<glyph unicode="&#xe909;" glyph-name="document" d="M119.171 840.594v-887.020c0-9.422 7.638-17.060 17.060-17.060h648.208c9.415 0 17.053 7.638 17.053 17.060v716.434c0 0.379-0.183 0.703-0.218 1.075-0.084 1.497-0.379 2.972-0.871 4.384-0.19 0.548-0.323 1.075-0.562 1.609-0.829 1.855-1.981 3.548-3.415 4.996l-170.579 170.579c-1.447 1.44-3.148 2.593-5.017 3.415-0.513 0.218-1.033 0.401-1.567 0.562-1.426 0.492-2.909 0.787-4.42 0.885-0.288-0.049-0.625 0.133-0.984 0.133h-477.63c-9.422 0-17.060-7.631-17.060-17.053zM743.258 687.069h-112.344v112.344zM153.284 823.534h443.517v-153.526c0-9.415 7.638-17.053 17.053-17.053h153.526v-682.328h-614.096zM835.612 72.98v-34.113h51.173c9.422 0 17.060 7.631 17.060 17.053v887.020c0 9.422-7.638 17.060-17.060 17.060h-648.208c-9.422 0-17.060-7.638-17.060-17.060v-51.173h34.12v34.12h614.089v-852.907zM255.637 618.836h409.39v-34.113h-409.39zM255.637 721.189h136.466v-34.12h-136.466zM255.637 516.49h272.931v-34.12h-272.931zM562.681 516.49h102.346v-34.12h-102.346zM255.637 414.144h409.39v-34.12h-409.39zM255.637 209.446h409.39v-34.12h-409.39zM409.155 311.792h255.871v-34.113h-255.871zM255.637 311.792h119.406v-34.113h-119.406zM255.637 107.093h68.233v-34.113h-68.233zM357.983 107.093h307.044v-34.113h-307.044z" />
<glyph unicode="&#xe90a;" glyph-name="first" d="M528.62 603.474c0 6.739-4.067 12.826-10.289 15.405-6.233 2.584-13.411 1.154-18.182-3.618l-66.694-66.704 23.575-23.575 38.238 38.238v-176.522h-33.352v-33.352h100.051v33.352h-33.347zM862.125 486.744c0 193.404-156.779 350.183-350.183 350.183s-350.178-156.779-350.178-350.183c0-193.388 156.774-350.172 350.178-350.172 193.305 0.214 349.958 156.868 350.183 350.172zM511.942 169.914c-174.982 0-316.826 141.854-316.826 316.831 0 174.982 141.844 316.831 316.826 316.831s316.831-141.849 316.831-316.831c-0.198-174.893-141.927-316.632-316.831-316.831zM511.942 753.55c-147.346 0-266.8-119.46-266.8-266.805s119.454-266.8 266.8-266.8c147.346 0 266.805 119.454 266.805 266.8-0.167 147.283-119.527 266.628-266.805 266.805zM511.942 253.296c-128.929 0-233.448 104.519-233.448 233.448 0 128.934 104.519 233.453 233.448 233.453 128.934 0 233.453-104.519 233.453-233.453-0.136-128.872-104.577-233.313-233.453-233.448zM1018.987 135.037l-109.322 109.186c2.725 2.61 5.121 5.533 7.115 8.733 7.397 17.274 8.577 36.557 3.336 54.593-2.662 10.174-3.137 20.792-1.409 31.154 5.288 8.801 12.351 16.407 20.745 22.327 15.833 10.55 27.49 26.305 32.955 44.549 1.002 18.6-4.479 36.98-15.504 51.999-6.045 8.765-10.159 18.704-12.074 29.165 1.926 10.477 6.061 20.416 12.121 29.165 11.030 15.024 16.512 33.404 15.514 52.014-5.471 18.229-17.128 33.984-32.971 44.534-8.368 5.941-15.4 13.531-20.677 22.332-1.728 10.362-1.248 20.975 1.415 31.133 5.246 18.041 4.067 37.345-3.325 54.609-11.354 15.102-27.589 25.804-45.948 30.262-10.028 2.709-19.362 7.507-27.411 14.079-5.1 9.094-8.232 19.158-9.188 29.531-1.237 18.819-8.963 36.625-21.862 50.375-15.739 10.315-34.568 14.836-53.278 12.81-10.425-0.846-20.912 0.522-30.784 3.999-7.804 6.765-14.11 15.097-18.511 24.452-7.595 17.368-21.011 31.556-37.93 40.117-18.239 4.27-37.382 2.078-54.175-6.207-9.6-4.416-20.025-6.76-30.585-6.854-9.527 3.654-18.182 9.245-25.412 16.449-13.228 13.818-30.872 22.583-49.879 24.775-18.96-2.224-36.557-10.983-49.759-24.775-7.225-7.204-15.89-12.795-25.412-16.449-10.566 0.084-20.991 2.417-30.58 6.854-16.804 8.284-35.952 10.482-54.191 6.207-16.914-8.566-30.324-22.75-37.925-40.117-4.395-9.355-10.701-17.686-18.511-24.452-9.866-3.477-20.354-4.844-30.778-3.999-18.709 2.020-37.533-2.495-53.283-12.81-12.904-13.75-20.63-31.556-21.862-50.375-0.945-10.367-4.072-20.427-9.167-29.51-8.050-6.567-17.389-11.364-27.417-14.079-18.365-4.463-34.61-15.16-45.948-30.282-7.407-17.258-8.587-36.557-3.346-54.593 2.631-10.174 3.069-20.787 1.305-31.149-5.272-8.801-12.304-16.391-20.683-22.332-15.828-10.55-27.49-26.305-32.966-44.534-0.981-18.61 4.489-36.98 15.499-52.014 6.071-8.744 10.206-18.683 12.137-29.165-1.931-10.467-6.066-20.411-12.137-29.165-11.009-15.029-16.48-33.399-15.499-51.999 5.476-18.245 17.138-33.999 32.966-44.549 8.378-5.925 15.41-13.531 20.683-22.327 1.728-10.357 1.253-20.975-1.415-31.133-5.241-18.036-4.061-37.34 3.331-54.614 1.994-3.2 4.385-6.144 7.126-8.754l-109.212-109.165c-4.213-4.202-5.862-10.331-4.343-16.078 1.535-5.763 6.008-10.258 11.751-11.819l120.551-32.835 32.83-120.545c1.577-5.716 6.066-10.159 11.803-11.678 1.399-0.355 2.84-0.543 4.286-0.543 4.427 0 8.666 1.759 11.792 4.886l128.397 128.308c6.781-12.158 17.368-21.763 30.136-27.323 18.229-4.265 37.382-2.078 54.175 6.191 9.584 4.469 20.009 6.802 30.58 6.859 9.532-3.644 18.182-9.25 25.417-16.438 13.165-13.797 30.737-22.583 49.67-24.853 18.965 2.224 36.557 10.989 49.754 24.791 7.235 7.188 15.901 12.795 25.417 16.433 10.571-0.063 21.001-2.396 30.58-6.854 16.809-8.269 35.957-10.461 54.196-6.207 12.774 5.575 23.36 15.175 30.152 27.338l128.397-128.308c3.132-3.132 7.376-4.891 11.792-4.891 1.441 0 2.882 0.188 4.281 0.548 5.732 1.514 10.226 5.956 11.808 11.672l32.84 120.545 120.54 32.83c5.742 1.566 10.221 6.066 11.745 11.813 1.519 5.763-0.131 11.881-4.338 16.094zM190.308-9.74l-27.792 102.008c-1.556 5.669-5.998 10.112-11.672 11.667l-102.019 27.829 94.731 94.601c3.184-1.253 6.384-2.521 9.49-3.67 10.023-2.709 19.357-7.507 27.411-14.074 5.1-9.088 8.232-19.153 9.182-29.531 1.242-18.814 8.963-36.625 21.862-50.375 15.765-10.331 34.631-14.857 53.366-12.805 10.43 0.84 20.917-0.522 30.778-4.004 3.221-2.203 5.993-4.991 8.154-8.232zM681.046 104.301c-6.666-11.317-13.505-23.026-20.594-25.621-10.931-0.736-21.857 1.441-31.687 6.301-14.852 6.807-31.206 9.673-47.483 8.337-15.436-4.213-29.515-12.341-40.89-23.58-10.2-8.436-20.761-17.143-28.518-17.143-7.752 0-18.339 8.707-28.513 17.143-11.359 11.197-25.428 19.283-40.822 23.475-2.944 0.522-5.93 0.762-8.916 0.757-13.28-0.82-26.32-3.873-38.572-9.021-9.804-4.839-20.693-7.016-31.598-6.316-7.105 2.605-13.98 14.319-20.615 25.637-6.865 14.591-17.389 27.15-30.549 36.463-14.737 6.854-30.987 9.772-47.191 8.493-10.962-1.206-22.050 0.522-32.13 5.001-6.181 9.182-9.809 19.847-10.519 30.888-1.535 16.146-7.199 31.624-16.465 44.93-11.479 11.401-25.72 19.628-41.339 23.883-11.667 4.354-25.015 9.276-28.69 15.723-2.631 10.681-2.396 21.857 0.663 32.423 4.082 15.755 4.025 32.313-0.167 48.036-6.859 14.502-17.347 26.994-30.423 36.265-10.012 8.561-20.437 17.394-21.685 25.015 1.237 10.79 5.257 21.058 11.672 29.813 9.292 13.52 14.945 29.207 16.391 45.541-1.467 16.365-7.131 32.073-16.459 45.593-6.41 8.76-10.435 19.033-11.672 29.813 1.315 7.538 11.672 16.371 21.674 25.015 13.092 9.271 23.575 21.763 30.434 36.27 4.192 15.734 4.249 32.277 0.167 48.042-3.059 10.561-3.289 21.737-0.647 32.412 3.748 6.473 17.013 11.391 28.711 15.749 15.598 4.254 29.839 12.487 41.323 23.867 9.261 13.317 14.925 28.784 16.438 44.936 0.72 11.041 4.354 21.69 10.524 30.883 10.091 4.474 21.178 6.202 32.146 4.996 16.198-1.279 32.449 1.644 47.175 8.488 13.16 9.318 23.679 21.883 30.549 36.468 6.671 11.328 13.515 23.032 20.594 25.626 10.936 0.741 21.873-1.43 31.687-6.296 14.846-6.838 31.201-9.699 47.488-8.342 15.431 4.207 29.515 12.314 40.885 23.564 10.174 8.436 20.766 17.138 28.518 17.138 7.747 0 18.349-8.702 28.513-17.138 11.375-11.234 25.459-19.351 40.895-23.548 16.282-1.342 32.626 1.535 47.483 8.337 9.819 4.87 20.75 7.047 31.687 6.306 7.099-2.605 13.975-14.309 20.609-25.637 6.87-14.58 17.389-27.145 30.549-36.468 14.737-6.833 30.987-9.762 47.191-8.483 10.962 1.195 22.050-0.527 32.13-5.001 6.181-9.182 9.809-19.842 10.529-30.883 1.503-16.177 7.173-31.687 16.454-45.024 11.484-11.401 25.73-19.623 41.339-23.883 11.672-4.343 25.015-9.266 28.706-15.718 2.615-10.675 2.391-21.857-0.673-32.412-4.087-15.77-4.030-32.308 0.162-48.052 6.865-14.502 17.347-26.989 30.439-36.265 10.007-8.556 20.427-17.389 21.669-25.015-1.237-10.78-5.257-21.053-11.662-29.813-9.323-13.505-14.998-29.186-16.48-45.526 1.462-16.355 7.131-32.063 16.454-45.583 6.416-8.76 10.44-19.038 11.678-29.823-1.321-7.538-11.678-16.371-21.68-25.005-13.092-9.276-23.569-21.774-30.429-36.265-4.197-15.734-4.249-32.292-0.167-48.052 3.054-10.561 3.278-21.742 0.642-32.412-3.743-6.468-17.007-11.391-28.706-15.739-15.603-4.27-29.844-12.492-41.323-23.883-9.266-13.301-14.925-28.784-16.438-44.92-0.731-11.041-4.359-21.7-10.529-30.883-10.085-4.479-21.178-6.207-32.146-5.001-16.193 1.279-32.449-1.644-47.175-8.488-13.176-9.297-23.721-21.826-30.617-36.39zM873.082 103.967c-5.685-1.556-10.122-5.998-11.678-11.667l-27.798-102.008-113.388 113.394c2.172 3.247 4.933 6.040 8.154 8.232 9.866 3.487 20.354 4.85 30.784 4.009 18.725-2.046 37.596 2.485 53.356 12.81 12.904 13.75 20.636 31.556 21.857 50.375 0.961 10.367 4.082 20.427 9.177 29.51 8.050 6.557 17.399 11.354 27.411 14.074 3.122 1.148 6.327 2.417 9.506 3.691l94.731-94.606z" />
<glyph unicode="&#xe90b;" glyph-name="file" d="M725.333 584.533h-426.667c-9.421 0-17.067-7.629-17.067-17.067s7.646-17.067 17.067-17.067h426.667c9.421 0 17.067 7.629 17.067 17.067s-7.646 17.067-17.067 17.067zM298.667 686.933h170.667c9.421 0 17.067 7.629 17.067 17.067s-7.646 17.067-17.067 17.067h-170.667c-9.421 0-17.067-7.629-17.067-17.067s7.646-17.067 17.067-17.067zM725.333 448h-426.667c-9.421 0-17.067-7.629-17.067-17.067s7.646-17.067 17.067-17.067h426.667c9.421 0 17.067 7.629 17.067 17.067s-7.646 17.067-17.067 17.067zM725.333 311.467h-426.667c-9.421 0-17.067-7.629-17.067-17.067s7.646-17.067 17.067-17.067h426.667c9.421 0 17.067 7.629 17.067 17.067s-7.646 17.067-17.067 17.067zM725.333 174.933h-426.667c-9.421 0-17.067-7.629-17.067-17.067s7.646-17.067 17.067-17.067h426.667c9.421 0 17.067 7.629 17.067 17.067s-7.646 17.067-17.067 17.067zM664.132 960h-553.199v-1024h802.133v775.066l-248.934 248.934zM674.133 901.734l180.668-180.668h-180.668v180.668zM145.067-29.867v955.733h494.933v-238.933h238.933v-716.8h-733.867z" />
<glyph unicode="&#xe90c;" glyph-name="home2" d="M512 928l-512-512 96-96 96 96v-416h256v192h128v-192h256v416l96-96 96 96-512 512zM512 512c-35.346 0-64 28.654-64 64s28.654 64 64 64c35.346 0 64-28.654 64-64s-28.654-64-64-64z" />
<glyph unicode="&#xe90d;" glyph-name="home3" d="M1024 352l-192 192v288h-128v-160l-192 192-512-512v-32h128v-320h320v192h128v-192h320v320h128z" />
<glyph unicode="&#xe90e;" glyph-name="analysis_essays--icon" d="M658.278 873.651c-153.011 0-277.504-124.493-277.504-277.504 0-65.638 23.245-128.896 65.587-178.97l-42.061-42.061-18.662 18.662c-9.446 9.446-25.882 9.446-35.302 0l-239.488-239.488c-14.592-14.566-22.605-33.997-22.605-54.682s8.013-40.090 22.63-54.682c14.566-14.566 33.997-22.605 54.656-22.605s40.064 8.013 54.682 22.605l239.488 239.488c9.728 9.728 9.728 25.549 0 35.277l-20.122 20.096 42.266 42.266c49.613-41.011 111.974-63.488 176.435-63.488 153.011 0 277.504 124.493 277.504 277.504-0.026 153.088-124.518 277.581-277.504 277.581zM885.862 596.122c0-125.517-102.093-227.61-227.61-227.61s-227.61 102.093-227.61 227.61 102.093 227.61 227.61 227.61 227.61-102.118 227.61-227.61zM406.784 302.080l-221.85-221.85c-10.701-10.701-28.109-10.675-38.81-0.026-10.675 10.726-10.675 28.134 0 38.835l221.85 221.824 38.81-38.784zM757.427 643.84c-9.907 4.659-21.76 0.384-26.394-9.498l-2.483-5.274c-2.253-4.787-2.534-10.163-0.717-15.155 1.766-4.992 5.427-8.986 10.214-11.238 2.662-1.229 5.555-1.894 8.422-1.894 7.629 0 14.669 4.454 17.946 11.392l2.483 5.274c4.634 9.907 0.384 21.734-9.472 26.394zM733.926 593.946v0c-9.933 4.685-21.709 0.435-26.394-9.498l-27.034-57.446c-3.174 0.154-6.298 0-9.523-0.435l-49.254 84.762c6.579 8.883 10.163 19.763 10.163 30.848 0 28.646-23.296 51.968-51.942 51.968s-51.968-23.322-51.968-51.968c0-9.779 2.714-19.251 7.91-27.52l-15.744-22.912c-3.533 0.742-7.194 1.126-10.854 1.126-28.672 0-51.968-23.322-51.968-51.968 0-28.672 23.322-51.968 51.968-51.968s51.968 23.322 51.968 51.968c0 10.138-2.893 19.866-8.422 28.339l15.334 22.298c6.323-1.485 12.979-1.792 19.686-0.742l48.896-84.198c-6.938-9.037-10.701-20.147-10.701-31.539 0-28.646 23.322-51.968 51.968-51.968s51.942 23.322 51.942 51.968c0 13.056-4.813 25.395-13.568 34.995l27.085 57.472c4.531 9.933 0.282 21.76-9.549 26.419zM592.23 642.227c0-6.784-5.53-12.314-12.288-12.314-6.81 0-12.314 5.53-12.314 12.314s5.53 12.314 12.314 12.314c6.758 0 12.288-5.53 12.288-12.314zM690.253 475.136c-0.026-6.81-5.555-12.314-12.288-12.314-6.81 0-12.314 5.53-12.314 12.314s5.53 12.314 12.314 12.314c6.758 0 12.288-5.53 12.288-12.314zM521.549 541.005c-0.026-6.81-5.53-12.314-12.314-12.314s-12.314 5.53-12.314 12.314 5.53 12.314 12.314 12.314 12.314-5.53 12.314-12.314zM732.16 699.597c0-28.646 23.322-51.968 51.968-51.968s51.968 23.322 51.968 51.968c0 28.672-23.322 51.968-51.968 51.968s-51.968-23.322-51.968-51.968zM771.84 699.597c0 6.784 5.53 12.314 12.288 12.314 6.81 0 12.314-5.53 12.314-12.314s-5.53-12.314-12.314-12.314c-6.758 0-12.288 5.504-12.288 12.314z" />
<glyph unicode="&#xe90f;" glyph-name="art_essays--icon" d="M247.091 562.79h199.322c13.030 0 23.629 10.573 23.629 23.603s-10.598 23.629-23.629 23.629h-199.322c-13.030 0-23.603-10.598-23.603-23.629-0.026-13.005 10.573-23.603 23.603-23.603zM737.229 736.077c-0.051-6.63-0.102-13.773-0.102-21.478 0-27.827 17.562-52.813 43.341-62.49v-193.818c0-13.030 10.573-23.603 23.603-23.603s23.603 10.573 23.603 23.603v194.048c24.96 9.677 41.933 33.792 42.803 61.542 1.715 56.806-10.342 133.299-134.528 141.491-9.984 0.947-19.354-5.094-23.296-14.336-3.891-9.267-1.536-19.994 5.888-26.701 17.766-16.179 19.123-26.65 18.688-78.259zM823.245 715.29c-0.358-11.315-8.883-20.147-19.456-20.147-10.726 0-19.43 8.73-19.43 19.456 0 7.552 0.051 14.592 0.102 21.12 0.205 25.574 0.41 45.491-3.61 63.13 40.781-15.974 43.469-48.614 42.394-83.558zM247.091 628.454h158.694c13.030 0 23.603 10.573 23.603 23.603s-10.573 23.629-23.603 23.629h-158.694c-13.030 0-23.603-10.598-23.603-23.629-0.026-13.030 10.573-23.603 23.603-23.603zM411.981 189.158h-236.902v550.298h445.056v-139.366c0-13.030 10.598-23.603 23.629-23.603s23.603 10.573 23.603 23.603v162.995c0 13.030-10.573 23.603-23.603 23.603h-468.685v10.726c0 6.528 3.277 10.368 4.301 10.726h464.384c13.030 0 23.603 10.598 23.603 23.629s-10.573 23.603-23.603 23.603h-464.384c-28.416 0-51.533-26.010-51.533-57.984v-631.885c0-13.030 10.573-23.629 23.603-23.629h55.475v-78.848c0-7.962 4.25-15.36 11.11-19.405 6.835-3.968 15.36-4.045 22.323-0.256l49.152 27.264 49.152-27.264c3.379-1.869 7.168-2.816 10.931-2.816 3.968 0 7.91 1.050 11.392 3.098 6.861 4.019 11.085 11.443 11.085 19.405v78.848h39.834c13.030 0 23.629 10.598 23.629 23.629 0.077 13.030-10.547 23.629-23.552 23.629zM327.117 101.299l-26.65 14.771c-3.43 1.869-7.168 2.842-10.931 2.842s-7.501-0.973-10.931-2.842l-26.65-14.771v40.602h75.136v-40.602h0.026zM886.63 364.288c-10.317 22.477-27.264 36.915-47.693 40.576-16.742 3.072-43.366-0.051-74.957-31.59-11.776-11.75-30.874-11.648-42.573 0.051-5.658 5.658-8.781 13.235-8.755 21.299 0 8.064 3.149 15.616 8.806 21.274 48.154 48.077 31.514 84.506 22.118 97.946-21.888 31.258-61.030 31.258-84.429 31.258-130.662 0-237.005-106.317-237.005-237.005s106.317-237.030 237.005-237.030 237.005 106.317 237.005 237.030c0 18.406-1.152 37.965-9.523 56.192zM659.149 118.323c-104.627 0-189.773 85.12-189.773 189.773 0 104.627 85.12 189.773 189.773 189.773 21.478 0 38.502-0.794 45.696-11.11 7.936-11.315-10.803-31.514-16.742-37.427-30.182-30.080-30.259-79.155-0.102-109.389 30.157-30.157 79.232-30.182 109.389-0.077 13.005 12.979 25.318 19.661 33.203 18.509 6.451-1.152 10.957-9.114 13.082-13.773 4.352-9.421 5.248-21.402 5.248-36.48-0.026-104.678-85.146-189.798-189.773-189.798zM595.379 328.397c-21.222 21.222-55.859 21.325-77.184 0.051-10.291-10.266-15.974-23.962-15.974-38.554-0.026-14.618 5.606-28.314 15.898-38.605 10.291-10.317 23.962-16 38.63-16.026 14.566 0 28.262 5.658 38.554 15.949 21.248 21.248 21.325 55.885 0.077 77.184zM556.749 269.21c-11.366 0-20.608 9.216-20.608 20.608s9.216 20.608 20.608 20.608 20.608-9.216 20.608-20.608-9.242-20.608-20.608-20.608zM602.138 244.326c-10.291-10.291-15.974-23.987-16-38.579 0-14.566 5.658-28.288 15.949-38.605 10.266-10.317 23.987-15.974 38.605-15.974 14.592 0 28.288 5.658 38.554 15.923 21.299 21.222 21.325 55.859 0.077 77.158-21.222 21.274-55.859 21.35-77.184 0.077zM640.742 185.19c-11.366 0-20.608 9.216-20.608 20.608s9.216 20.608 20.608 20.608c11.366 0 20.608-9.216 20.608-20.608s-9.216-20.608-20.608-20.608zM714.266 282.189c-21.274-21.274-21.299-55.91-0.051-77.184 10.291-10.317 24.013-16 38.605-16 14.566 0 28.237 5.632 38.554 15.923 21.274 21.248 21.325 55.885 0.077 77.184-20.531 20.557-56.499 20.71-77.184 0.077zM752.819 222.694c-11.366 0-20.608 9.216-20.608 20.608s9.216 20.608 20.608 20.608 20.608-9.216 20.608-20.608-9.242-20.608-20.608-20.608z" />
<glyph unicode="&#xe910;" glyph-name="book_review--icon" d="M633.088 555.418h152.883c11.546 0 20.941 9.395 20.941 20.941s-9.395 20.941-20.941 20.941h-152.883c-11.546 0-20.941-9.395-20.941-20.941s9.395-20.941 20.941-20.941zM749.645 450.688h-80.205c-11.571 0-20.966-9.395-20.966-20.941s9.395-20.915 20.966-20.915h80.205c11.546 0 20.941 9.37 20.941 20.915 0 5.581-2.15 10.829-6.118 14.797-3.942 3.968-9.216 6.144-14.822 6.144zM906.266 226.483c-5.606-0.23-10.778-2.611-14.592-6.707-16.819-18.15-56.525-15.667-106.726-12.595-71.45 4.378-168.909 10.419-272.947-41.83-103.219 52.275-201.267 46.234-272.947 41.83-50.278-3.072-89.933-5.53-106.726 12.57-7.834 8.499-21.094 9.037-29.619 1.178-8.448-7.885-8.96-21.146-1.126-29.594 29.619-32.026 76.518-29.85 136.038-26.24v-79.411c0-7.398 3.942-14.31 10.342-18.048 6.349-3.712 14.31-3.763 20.762-0.256l45.747 25.37 45.747-25.37c3.149-1.741 6.656-2.637 10.163-2.637 3.686 0 7.373 0.973 10.624 2.867 6.374 3.738 10.317 10.65 10.317 18.048v75.981c39.578-6.912 75.827-19.482 110.72-38.4 6.246-3.328 13.67-3.328 19.917 0.026 96.102 52.045 187.11 46.515 260.403 42.061 61.261-3.738 109.773-6.758 140.032 26.010 3.789 4.096 5.786 9.421 5.555 15.027s-2.586 10.778-6.707 14.566c-4.019 3.789-9.267 5.581-14.976 5.555zM349.44 166.758v-45.466l-24.806 13.747c-3.2 1.741-6.682 2.662-10.163 2.662s-6.963-0.896-10.163-2.662l-24.806-13.747v46.131c19.174 0.794 43.674 1.229 69.939-0.666zM633.088 482.099h152.883c11.546 0 20.941 9.395 20.941 20.941s-9.395 20.915-20.941 20.915h-152.883c-11.546 0-20.941-9.37-20.941-20.915s9.395-20.941 20.941-20.941zM917.811 828.288c-6.323 3.738-14.31 3.917-20.71 0.435-96.051-52.045-187.085-46.566-260.403-42.061-52.608 3.174-94.438 5.76-124.672-13.235-30.234 18.995-72.038 16.435-124.621 13.261-73.242-4.506-164.352-10.035-260.48 42.035-6.477 3.507-14.413 3.328-20.685-0.435-6.323-3.789-10.24-10.675-10.24-17.997v-530.867c0-5.274 1.971-10.317 5.555-14.234 30.31-32.742 78.72-29.824 140.621-25.984 19.84 1.229 42.342 2.611 66.125 2.611 47.053 0 118.323-4.634 193.536-44.544 3.686-1.946 7.808-2.662 10.189-2.662 3.277 0 6.426 0.742 9.523 2.304 96.538 52.275 187.597 46.746 260.915 42.266 61.338-3.763 109.747-6.733 139.955 25.984 3.61 3.84 5.581 8.934 5.581 14.259v530.867c0.026 7.347-3.891 14.234-10.189 17.997zM634.138 744.858c66.253-4.045 156.595-9.651 252.006 31.949v-487.936c-19.046-12.902-55.45-10.675-101.171-7.859-66.176 4.045-156.442 9.651-252.006-31.949v487.91c19.046 12.954 55.373 10.701 101.171 7.885zM491.085 249.062c-54.272 23.68-111.974 34.714-181.043 34.714-25.421 0-49.382-1.459-70.656-2.714-45.082-2.816-81.101-4.966-101.453 7.936v487.808c95.462-41.574 185.728-35.994 252.006-31.974 44.877 2.79 80.742 4.966 101.171-7.962l-0.026-487.808zM390.938 597.299h-152.883c-11.546 0-20.941-9.395-20.941-20.941s9.395-20.941 20.941-20.941h152.883c11.546 0 20.941 9.395 20.941 20.941s-9.395 20.941-20.941 20.941zM390.938 523.981h-152.883c-11.546 0-20.941-9.395-20.941-20.941s9.395-20.941 20.941-20.941h152.883c11.546 0 20.941 9.395 20.941 20.941 0 5.632-2.176 10.88-6.144 14.822-3.942 3.942-9.19 6.118-14.797 6.118zM354.611 450.688h-80.205c-11.546 0-20.941-9.395-20.941-20.941s9.395-20.915 20.941-20.915h80.205c11.546 0 20.941 9.37 20.941 20.915s-9.395 20.941-20.941 20.941z" />
<glyph unicode="&#xe911;" glyph-name="education_essays--icon" d="M947.994 525.184c-3.686 5.299-8.448 9.498-14.259 12.493-0.614 0.282-4.045 1.587-4.685 1.818l-391.706 145.075c-1.126 0.41-2.253 0.742-3.174 0.87-15.13 4.787-29.261 4.787-44.032 0.077-1.178-0.179-2.381-0.486-3.558-0.947l-391.322-144.922c-0.998-0.358-4.301-1.638-5.299-2.125-5.555-2.842-10.317-6.989-13.722-11.93-0.486-0.64-1.894-2.79-2.253-3.456-3.533-6.118-5.325-12.518-5.325-18.995 0-6.912 2.125-13.389 7.168-21.862 3.763-5.453 8.576-9.702 14.387-12.646 0.614-0.282 4.045-1.613 4.685-1.818l157.722-58.419v-107.52c0-61.645 130.509-93.901 259.405-93.901s259.405 32.256 259.405 93.901v107.571l69.734 25.856v-128.512l-34.688-69.427c-4.992-10.010-0.922-22.221 9.088-27.238 10.086-4.941 22.246-0.819 27.264 9.114l18.611 37.146 18.637-37.197c3.482-6.938 10.445-11.238 18.202-11.238 3.174 0 6.195 0.717 9.037 2.125 4.864 2.458 8.499 6.656 10.214 11.827 1.69 5.12 1.306 10.624-1.126 15.437l-34.586 69.222v142.438c0 0.461-0.077 0.896-0.154 1.254l47.104 17.434c0.973 0.358 4.301 1.638 5.274 2.125 5.53 2.816 10.291 6.989 13.85 12.134l2.099 3.226c3.558 6.118 5.35 12.493 5.35 18.97-0.026 6.938-2.202 13.491-7.347 22.042zM910.080 503.142l-138.982-51.507c-5.146 60.979-137.062 88.781-259.123 88.781s-253.978-27.802-259.149-88.755l-139.034 51.584 384.077 142.259c0.819 0.179 1.638 0.435 2.534 0.717 8.32 2.944 14.771 2.944 23.066 0 0.845-0.282 1.715-0.538 2.227-0.589l384.384-142.49zM512 354.074c133.581 0 218.778-34.944 218.778-53.222s-85.197-53.248-218.778-53.248-218.778 34.97-218.778 53.248 85.197 53.222 218.778 53.222zM293.222 353.485v94.49c0 18.278 85.197 53.248 218.778 53.248s218.778-34.944 218.778-53.248v-94.49c-48.23 26.496-133.504 39.731-218.778 39.731-85.299 0.026-170.573-13.21-218.778-39.731z" />
<glyph unicode="&#xe912;" glyph-name="history_essays--icon" d="M508.058 135.066l-38.963 53.862v333.542c0 12.339-10.061 22.4-22.4 22.4s-22.4-10.061-22.4-22.4v-318.413h-166.502v74.138c0 12.339-10.061 22.4-22.4 22.4s-22.4-10.010-22.4-22.374v-88.806l-39.322-54.349c-3.123-4.326-4.659-9.702-4.224-13.875l0.026-49.613c0-12.339 10.061-22.4 22.4-22.4h297.984c12.365 0 22.426 10.061 22.426 22.4l-0.051 48.179c0.435 5.632-0.998 10.931-4.173 15.309zM235.674 144.358l10.803 14.95h188.774l10.829-14.95h-210.406zM467.456 99.558v-17.408h-253.184v17.408h253.184zM328.525 291.942v353.536c0 12.339-10.061 22.4-22.426 22.4-12.339 0-22.4-10.061-22.4-22.4v-353.536c0-12.339 10.061-22.4 22.4-22.4 12.365 0 22.426 10.061 22.426 22.4zM398.106 291.942v353.536c0 12.339-10.061 22.4-22.426 22.4-12.339 0-22.4-10.061-22.4-22.4v-353.536c0-12.339 10.061-22.4 22.4-22.4 12.365 0 22.426 10.061 22.426 22.4zM905.472 134.989l-38.886 53.811v360.73c0 7.654-3.994 14.899-10.419 18.893-6.605 4.224-14.72 4.685-21.581 1.331l-26.982-12.851-55.808 39.475c-5.146 3.61-11.597 4.915-17.715 3.558l-46.515-10.266-36.25 49.434c-5.76 7.808-15.872 11.059-25.011 8.013-9.242-3.021-15.462-11.571-15.462-21.299v-176.128c0-12.339 10.061-22.4 22.4-22.4 12.365 0 22.426 10.061 22.426 22.4v107.75l4.429-6.016c5.274-7.219 14.31-10.598 22.886-8.627l51.098 11.264 58.342-41.242c6.579-4.685 15.232-5.427 22.554-1.946l6.784 3.226v-310.118h-166.093v154.138c0 12.339-10.061 22.4-22.426 22.4-12.339 0-22.4-10.061-22.4-22.4v-169.37l-38.886-53.786c-2.97-4.198-4.48-9.344-4.122-14.208v-49.126c0-12.339 10.061-22.4 22.426-22.4h296.934c12.365 0 22.426 10.061 22.426 22.4v48.358c0.435 5.325-1.024 10.624-4.147 15.002zM897.69 129.357v0 0 0zM634.035 144.256l10.752 14.874h188.006l10.726-14.874h-209.485zM864.845 99.482v-17.357h-252.16v17.357h252.16zM720.87 268.954v203.418c0 12.339-10.061 22.4-22.4 22.4-12.365 0-22.426-10.061-22.426-22.4v-203.418c0-12.365 10.061-22.426 22.426-22.426s22.4 10.035 22.4 22.426zM798.029 268.954v203.418c0 12.339-10.061 22.4-22.426 22.4-12.339 0-22.4-10.061-22.4-22.4v-203.418c0-12.365 10.061-22.426 22.4-22.426 12.365 0 22.426 10.035 22.426 22.426zM545.357 846.797h-408.627c-12.365 0-22.426-10.061-22.426-22.4v-74.496c0-39.578 32.179-71.757 71.757-71.757 9.267 0 18.432 1.792 26.957 5.299v-313.651c0-12.365 10.061-22.426 22.4-22.426s22.4 10.061 22.4 22.426v357.709h166.477v-113.434c0-12.339 10.061-22.4 22.426-22.4 12.339 0 22.374 10.061 22.374 22.4v69.402c8.55-3.507 17.69-5.299 26.957-5.299 39.578 0 71.757 32.179 71.757 71.757v74.547c-0.077 12.314-10.138 22.323-22.451 22.323zM212.838 746.957c-1.485-13.517-13.158-24.013-26.752-24.013-14.848 0-26.957 12.109-26.957 26.957v52.122h363.853v-52.122c0-14.848-12.109-26.957-26.957-26.957-14.413 0-26.496 11.622-26.906 25.651l-0.461 23.68h-255.846l0.026-25.318z" />
<glyph unicode="&#xe913;" glyph-name="justice_essays--icon" d="M963.021 205.133l-178.995 178.995c-11.494 11.443-29.158 15.334-44.237 9.574l-95.77 95.77c-4.275 4.301-10.010 6.682-16.102 6.682 0 0 0 0-0.026 0-6.067 0-11.802-2.381-16.128-6.682-4.301-4.301-6.656-10.035-6.656-16.128s2.355-11.802 6.656-16.102l93.107-93.082-23.219-23.194-169.6 169.6 23.219 23.219 17.715-17.715c8.858-8.858 23.322-8.858 32.23 0 4.301 4.301 6.682 10.035 6.682 16.128-0.026 6.093-2.406 11.802-6.682 16.102l-17.715 17.715 50.278 50.278c16.307-14.566 43.059-13.901 58.752 1.69l23.501 23.501c8.064 8.090 12.518 18.842 12.518 30.259 0 11.443-4.454 22.195-12.518 30.259l-180.403 180.403c-16.205 16.205-44.416 16.154-60.518 0l-23.552-23.526c-8.064-8.090-12.518-18.842-12.518-30.259 0-10.624 3.84-20.634 10.854-28.467l-188.211-188.211c-16.794 14.925-42.624 14.387-58.726-1.69l-23.501-23.501c-8.090-8.064-12.544-18.816-12.544-30.285 0-11.418 4.454-22.17 12.544-30.259l180.378-180.403c16.205-16.205 44.365-16.154 60.518 0l23.526 23.526c16.051 16.077 16.614 41.933 1.664 58.701l50.253 50.227 172.262-172.262c-1.741-4.659-2.662-9.626-2.662-14.643 0-11.213 4.352-21.734 12.262-29.594l178.97-178.995c7.936-7.91 18.432-12.262 29.619-12.262s21.734 4.352 29.594 12.262l63.13 63.13c7.91 7.936 12.262 18.432 12.262 29.619s-4.326 21.709-12.211 29.619zM754.406 349.21l173.696-173.722-57.83-57.856-173.722 173.722 57.856 57.856zM393.626 399.539l-19.584-19.558-176.461 176.461 19.584 19.558 176.461-176.461zM585.472 648.422l-188.109-188.109-119.398 119.398 188.109 188.109 119.398-119.398zM469.197 828.006l20.122 20.122 176.435-176.461-19.558-19.558-176.998 175.898zM667.699 673.587v0.077l0.026-0.026-0.026-0.051zM596.506 173.517h-10.624v59.955c0 20.813-16.922 37.734-37.734 37.734h-227.482c-12.57 0-22.784-10.214-22.784-22.784s10.214-22.784 22.784-22.784h219.648v-52.070h-331.469v52.045h28.902c12.57 0 22.784 10.214 22.784 22.784s-10.214 22.784-22.784 22.784h-36.762c-20.813 0-37.734-16.922-37.734-37.734v-59.93h-10.624c-36.89 0-66.918-30.029-66.918-66.918v-37.581c0-17.485 14.208-31.667 31.667-31.667h514.355c17.485 0 31.667 14.208 31.667 31.667v37.581c0.026 17.843-6.938 34.662-19.61 47.309s-29.44 19.61-47.283 19.61zM617.83 106.598v-23.654h-486.528v23.654c0 11.75 9.574 21.325 21.325 21.325h443.878c11.75 0 21.325-9.574 21.325-21.325z" />
<glyph unicode="&#xe914;" glyph-name="literature_essays--icon" d="M878.438 276.224c3.482 3.942 5.274 13.542 2.253 20.992-2.662 6.63-8.55 10.65-16.87 11.315h-607.155c-63.898 0-115.866-51.968-115.866-115.866 0-63.872 51.968-115.84 115.866-115.84l607.59 0.026c11.546 1.331 16.051 7.040 17.766 11.622 2.918 7.706-0.307 17.075-3.738 20.89-50.688 56.013-50.637 109.030 0.154 166.861zM824.525 115.789h-567.859c-42.419 0-76.928 34.483-76.928 76.877 0 42.419 34.509 76.928 76.928 76.928h568.32c-31.949-51.558-32.102-103.245-0.461-153.805zM256.666 587.443h16.128v-23.578h-112.973c-8.013-0.666-13.875-4.685-16.538-11.29-3.021-7.45-1.229-17.050 2.227-21.018 50.842-57.83 50.893-110.874 0.205-166.861-3.456-3.789-6.707-13.158-3.789-20.864 1.715-4.582 6.221-10.317 17.792-11.648l607.59-0.026c63.898 0 115.866 51.968 115.866 115.866 0 63.872-51.968 115.84-115.866 115.84h-335.846v23.578l432.768 0.026c11.546 1.28 16.051 7.014 17.766 11.597 2.918 7.706-0.307 17.075-3.738 20.89-50.688 56.013-50.662 109.030 0.179 166.861 3.482 3.968 5.274 13.568 2.253 21.018-2.662 6.63-8.55 10.65-16.87 11.315h-607.155c-63.898 0-115.866-51.968-115.866-115.866s51.994-115.84 115.866-115.84zM824.525 626.381h-393.062v76.928c0 10.726-8.73 19.482-19.482 19.482h-119.731c-10.726 0-19.482-8.73-19.482-19.482v-76.928l-16.102 0.026c-42.419 0-76.928 34.509-76.928 76.902 0 42.419 34.509 76.928 76.928 76.928h568.32c-31.949-51.558-32.128-103.245-0.461-153.856zM198.989 524.979h73.805v-64.461c-0.666-9.6 3.405-18.202 10.112-21.402 3.738-1.792 11.443-3.379 21.325 5.862l47.872 37.478 47.821-37.427c10.88-8.883 18.739-6.861 22.426-4.838 6.298 3.379 9.958 11.597 9.114 20.096v64.691h335.821c42.419 0 76.928-34.509 76.928-76.928 0-42.394-34.509-76.902-76.928-76.902h-567.808c31.616 50.56 31.462 102.272-0.486 153.83zM392.525 500.224l-28.39 22.272c-6.938 5.402-17.152 5.35-24.013 0l-28.365-22.246v183.629h80.794v-183.654h-0.026z" />
<glyph unicode="&#xe915;" glyph-name="management_essays--icon" d="M623.027 203.494l-2.56-9.242 1.126 9.626-74.65 15.616-19.328 29.235c-5.274 7.091-13.389 11.827-22.298 12.928-1.434 0.179-2.816-0.333-4.25-0.358 4.173 4.198 8.243 8.602 12.134 13.312 30.438 36.813 47.898 85.478 47.898 133.837 0 12.544-10.214 22.784-22.784 22.784s-22.81-10.214-22.81-22.989c0-37.683-13.645-75.776-37.453-104.525-23.603-28.518-53.709-44.237-84.813-44.237s-61.286 15.718-84.966 44.288c-23.885 28.8-37.555 66.867-37.555 104.525v15.821c0 27.981 18.227 66.944 26.778 83.661 50.074 5.248 98.406 2.842 143.514-7.091 11.827-2.765 24.653 5.248 27.264 17.306 2.688 12.262-5.043 24.448-17.331 27.187-53.453 11.776-110.541 14.029-168.96 6.733-7.808-0.384-14.797-4.634-18.688-11.366-0.717-1.254-4.659-8.115-9.702-18.483-2.15 15.258-3.251 27.802-3.251 37.018 0 42.214 26.163 57.19 48.563 57.19 0.922 0 1.843 0.051 2.79 0.179 6.118-0.87 11.853 0.896 16.538 4.48 25.984 19.789 62.285 16.922 97.613 10.931 6.042-0.922 12.083 0.384 17.050 3.891s8.243 8.755 9.267 14.746c1.024 6.016-0.384 12.109-3.917 17.075-3.533 4.941-8.781 8.218-14.746 9.216-40.678 6.938-87.322 10.47-126.259-14.95-27.238-0.435-51.43-11.597-68.25-31.539-15.616-18.509-24.218-43.802-24.218-71.194 0-41.805 17.178-116.966 20.352-129.434v-21.402c0-48.102 17.536-96.794 48.077-133.632 3.917-4.736 7.987-9.165 12.211-13.389-1.536 0.026-3.021 0.563-4.582 0.384-8.806-1.101-16.922-5.811-23.040-14.003l-18.586-28.186-76.058-15.949c-25.037-6.989-46.31-22.451-61.517-44.749-13.773-20.173-21.35-44.544-21.35-68.582v-24.806c0-27.059 23.68-49.075 52.787-49.075h519.987c29.133 0 52.813 22.016 52.813 49.075v24.806c0 24.013-7.578 48.384-21.35 68.582-15.206 22.272-36.454 37.76-61.491 44.749zM445.056 223.949l-51.994-44.774-52.403 45.082c16.819-6.733 34.483-10.394 52.582-10.394 17.843 0 35.251 3.533 51.814 10.086zM333.056 66.304c6.042 0 11.75 2.381 16.102 6.682l43.878 43.878 43.878-43.878c4.198-4.173 9.984-6.605 17.638-6.605 0.077 0 0.154 0 0.256 0 6.656 0.538 12.723 3.917 16.666 9.318l71.322 98.074 68.224-14.259c32.307-9.242 49.203-41.882 49.203-69.35l0.026-24.806c0-0.845-2.662-3.482-7.219-3.482h-519.987c-3.456 0.154-5.299 1.178-7.168 3.482v24.806c0 27.443 16.896 60.083 48.512 69.171l68.915 14.413 71.322-98.074c3.917-5.376 9.984-8.781 18.432-9.37zM450.355 124.032l-23.782 23.808 72.090 62.029 6.707-10.138-55.014-75.699zM359.603 147.84l-23.782-23.808-55.014 75.674 6.707 10.138 72.090-62.003zM696.704 879.718c-136.218 0-247.040-110.822-247.040-247.040s110.822-247.040 247.040-247.040 247.040 110.822 247.040 247.040-110.848 247.040-247.040 247.040zM898.15 632.678c0-111.104-90.368-201.472-201.472-201.472-111.078 0-201.446 90.368-201.446 201.472s90.368 201.472 201.446 201.472c111.104 0 201.472-90.394 201.472-201.472zM749.491 760.986c-12.57 0-22.81-10.214-22.81-22.784s10.214-22.81 22.81-22.81h24.115l-76.902-76.902-23.45 23.475c-8.909 8.858-23.347 8.858-32.256 0l-105.549-105.549c-8.883-8.909-8.858-23.373 0-32.256 4.301-4.275 10.035-6.656 16.128-6.656s11.827 2.381 16.128 6.656l89.395 89.421 23.45-23.475c3.226-3.2 7.296-5.376 11.878-6.246 2.79-0.512 5.606-0.538 8.55 0.026 4.531 0.845 8.627 3.046 11.827 6.246l93.005 93.030v-24.115c0-12.57 10.214-22.81 22.784-22.81s22.81 10.214 22.81 22.81l-0.026 80.717-5.094 12.877c-0.973 1.178-2.048 2.253-3.942 3.738l-6.067-7.424 4.045 8.806-90.829 3.226zM706.022 596.941v0 0 0z" />
<glyph unicode="&#xe916;" glyph-name="personal_essays--icon" d="M512.589 407.834h177.818c13.44 0 24.371 10.931 24.371 24.371s-10.931 24.371-24.371 24.371h-177.818c-13.44 0-24.346-10.931-24.346-24.371 0.026-13.44 10.931-24.371 24.346-24.371zM648.141 286.003h-93.312c-13.44 0-24.371-10.931-24.371-24.371s10.931-24.346 24.371-24.346h93.312c13.44 0 24.371 10.906 24.371 24.346 0.026 6.477-2.509 12.595-7.117 17.203-4.582 4.634-10.726 7.168-17.254 7.168zM512.589 322.586h177.818c13.44 0 24.371 10.931 24.371 24.371s-10.931 24.346-24.371 24.346h-177.818c-13.44 0-24.346-10.906-24.346-24.346 0.026-13.44 10.931-24.371 24.346-24.371zM891.238 834.662h-586.112c-11.853 0-21.504-9.651-21.504-21.504v-333.978h-150.886c-11.853 0-21.504-9.651-21.504-21.504v-288.589c0-59.392 48.333-107.725 107.725-107.725h586.112c59.392 0 107.725 48.333 107.725 107.725v644.070c-0.051 11.878-9.702 21.504-21.555 21.504zM283.622 436.173v-267.11c0-35.686-29.030-64.717-64.717-64.717-35.661 0.026-64.691 29.056-64.691 64.717v267.11h129.408zM869.76 791.654v-622.566c0-35.686-29.030-64.717-64.717-64.717h-500.070c14.029 18.637 21.658 41.267 21.658 64.717v622.566h543.13zM515.84 519.962h171.315c10.854 0 19.686 8.832 19.686 19.686 0 46.054-30.285 77.978-78.899 86.426 18.355 9.6 31.053 28.621 31.053 50.739 0 31.693-25.779 57.472-57.472 57.472s-57.472-25.779-57.472-57.498c0.051-22.067 12.749-41.088 31.104-50.688-48.666-8.422-78.976-40.371-78.976-86.426-0.026-10.906 8.832-19.712 19.661-19.712zM539.187 559.309c11.341 26.624 46.438 29.773 62.336 29.773s50.995-3.149 62.336-29.773h-124.672zM583.398 676.762c0 10.010 8.115 18.125 18.125 18.125s18.125-8.115 18.125-18.125-8.115-18.125-18.125-18.125-18.125 8.115-18.125 18.125z" />
<glyph unicode="&#xe917;" glyph-name="research_essays--icon" d="M783.949 313.395h-205.235c-13.056 0-23.706-10.65-23.706-23.731s10.65-23.731 23.706-23.731h7.552c-25.318-15.334-54.63-23.68-83.635-23.68-89.062 0-161.536 72.474-161.536 161.562 0 42.419 17.203 83.891 47.232 113.971 19.405 1.075 37.325 9.165 50.944 23.014l65.69-65.638c9.446-9.472 22.016-14.669 35.43-14.669 9.882 0 19.712 3.021 27.955 8.55l65.101-65.126c8.986-8.96 24.602-8.96 33.562 0l53.606 53.606c4.403 4.454 6.938 10.573 6.938 16.768 0 6.246-2.534 12.339-6.938 16.768l-65.075 65.075c5.606 8.269 8.55 17.894 8.55 27.981 0 13.389-5.222 26.010-14.72 35.482l-199.347 199.322c-9.472 9.446-22.067 14.643-35.482 14.643-7.552 0-14.976-1.664-21.658-4.89l-34.739 34.765c-8.909 8.909-24.755 8.806-33.562 0l-63.462-63.539c-4.48-4.48-6.938-10.419-6.938-16.768 0-6.323 2.483-12.288 6.938-16.742l34.714-34.765c-3.2-6.682-4.89-14.106-4.89-21.632 0-13.363 5.222-26.010 14.669-35.533l24.166-24.115c-10.035-9.882-17.126-22.093-20.659-35.61-59.008-54.118-92.826-130.918-92.826-210.893 0-97.971 48.742-187.162 130.867-240.358-55.373-8.781-97.51-57.242-97.51-114.176 0-13.082 10.65-23.731 23.731-23.731h451.021c13.082 0 23.731 10.65 23.731 23.731 0 54.989-39.066 102.246-92.186 113.254 40.704 25.882 74.266 61.44 97.434 103.373h30.566c13.082 0 23.731 10.65 23.731 23.731s-10.675 23.731-23.731 23.731zM357.376 797.158l-29.978-29.978-15.974 15.949 29.978 30.003 15.974-15.974zM414.106 595.149c0-16.538-13.466-30.003-30.003-30.003s-30.003 13.44-30.003 30.003 13.466 30.003 30.003 30.003 30.003-13.44 30.003-30.003zM384.077 672.589c-2.816 0-5.76-0.179-8.934-0.538l-35.994 35.994c-0.538 0.538-0.794 1.178-0.794 1.894s0.282 1.382 0.819 1.894l73.523 73.498c1.075 0.998 2.765 0.998 3.789-0.026l199.347-199.27c0.538-0.538 0.794-1.152 0.794-1.946 0-0.742-0.256-1.408-0.794-1.946l-73.498-73.446c-1.050-1.101-2.79-1.101-3.84 0l-77.491 77.466c0.358 3.021 0.538 5.965 0.538 8.96-0.026 42.726-34.765 77.466-77.466 77.466zM502.605 164.992c-131.686 0-238.822 107.136-238.822 238.822 0 55.091 19.174 108.621 54.093 151.219 5.274-8.653 12.211-16.256 20.378-22.272-28.8-36.736-44.621-82.381-44.621-128.947 0-115.251 93.747-208.998 208.973-208.998 58.931 0 117.453 26.547 156.851 71.091h37.99c-45.005-63.283-117.402-100.915-194.842-100.915zM632.525 117.53c28.416 0 54.093-18.074 63.923-44.467h-395.059c9.83 26.394 35.533 44.467 63.949 44.467h267.187zM602.624 501.888l20.019 20.019 47.616-47.59-20.019-20.019-47.616 47.59z" />
<glyph unicode="&#xe918;" glyph-name="articles--icon1" d="M695.808 514.176c-3.763 3.738-8.781 5.837-14.080 5.837-0.026 0-0.051 0-0.051 0h-169.702c-11.034 0-19.994-8.986-19.994-20.019s8.986-19.994 19.994-19.994l169.702 0.026c11.034 0 19.994 8.986 19.994 19.994 0.026 5.35-2.099 10.394-5.862 14.157zM681.677 413.594l-169.702-0.026c-11.034 0-19.994-8.986-19.994-19.994s8.986-19.994 19.994-19.994l169.728 0.026c11.034 0 19.994 8.986 19.994 19.994s-8.96 19.994-20.019 19.994zM681.702 307.2l-169.702-0.026c-11.034 0-19.994-8.986-19.994-19.994s8.986-19.994 19.994-19.994h169.702c11.034 0 19.994 8.986 19.994 20.019s-8.96 19.994-19.994 19.994zM427.955 519.987l-169.702-0.026c-11.034 0-19.994-8.986-19.994-19.994l0.026-169.702c0-11.034 8.986-19.994 19.994-19.994l169.702 0.026c11.034 0 19.994 8.986 19.994 19.994v169.702c0 11.008-8.96 19.994-20.019 19.994zM407.987 350.285l-129.69-0.026-0.026 129.69 129.69 0.026 0.026-129.69zM681.702 626.816h-423.424c-11.034 0-19.994-8.986-19.994-19.994s8.986-19.994 19.994-19.994h423.424c11.034 0 19.994 8.986 19.994 19.994s-8.96 19.994-19.994 19.994zM849.741 694.835h-47.232v47.181c0 20.301-16.512 36.813-36.813 36.813h-591.411c-20.301 0-36.813-16.512-36.813-36.813v-537.651c0-48.077 39.117-87.194 87.219-87.194h574.618c48.102 0 87.219 39.117 87.219 87.194v453.632c0 20.301-16.486 36.838-36.787 36.838zM846.541 204.365c0-26.035-21.171-47.206-47.232-47.206h-574.618c-26.035 0-47.206 21.171-47.206 47.206v534.451h585.037v-509.286c0-24.934 20.301-45.21 45.235-45.21 11.034 0 19.994 8.986 19.994 19.994s-8.986 19.994-19.994 19.994c-2.867 0-5.222 2.33-5.222 5.197v425.293h44.032l-0.026-450.432z" />
<glyph unicode="&#xe919;" glyph-name="discussion--icon" d="M988.979 268.979h-43.341v411.699c0 55.219-44.928 100.147-100.122 100.147h-666.957c-55.219 0-100.147-44.928-100.147-100.147v-411.699h-43.341c-12.442 0-22.605-10.138-22.605-22.605v-32.947c0-54.144 44.083-98.227 98.227-98.227h802.662c54.144 0 98.202 44.083 98.202 98.227v32.947c0 12.442-10.138 22.605-22.579 22.605zM123.571 268.979v411.699c0 30.336 24.653 54.963 54.963 54.963h666.982c30.31 0 54.938-24.653 54.938-54.963v-411.699h-776.883zM966.4 223.795v-10.368c0-29.261-23.782-53.018-53.018-53.018h-802.688c-29.261 0-53.018 23.782-53.018 53.018v10.368c0 0 908.723 0 908.723 0zM767.949 664.499h-511.872c-12.442 0-22.605-10.138-22.605-22.605v-279.194c0-12.442 10.138-22.579 22.605-22.579h511.846c12.442 0 22.605 10.138 22.605 22.579v279.194c0.026 12.467-10.112 22.605-22.579 22.605zM278.707 385.306v234.035h466.662v-234.035h-466.662zM395.418 571.418h-61.773c-12.442 0-22.579-10.138-22.579-22.579s10.138-22.605 22.579-22.605h61.773c12.442 0 22.579 10.138 22.579 22.605 0.026 12.442-10.138 22.579-22.579 22.579zM690.406 571.418h-207.795c-12.442 0-22.605-10.138-22.605-22.579s10.138-22.605 22.605-22.605h207.795c12.442 0 22.605 10.138 22.605 22.605-0.026 12.442-10.163 22.579-22.605 22.579zM694.298 478.362h-360.653c-12.442 0-22.579-10.138-22.579-22.579s10.138-22.605 22.579-22.605h360.653c12.442 0 22.579 10.138 22.579 22.605s-10.112 22.579-22.579 22.579z" />
<glyph unicode="&#xe91a;" glyph-name="dissertations--icon" d="M546.637 167.68h-229.35c-11.443 0-20.762-9.293-20.762-20.762s9.293-20.762 20.762-20.762h229.35c11.443 0 20.762 9.293 20.762 20.762s-9.318 20.762-20.762 20.762zM711.014 254.874h-398.003c-11.443 0-20.762-9.293-20.762-20.762 0-11.418 9.293-20.736 20.762-20.736h398.003c11.443 0 20.762 9.293 20.762 20.736-0.026 11.469-9.318 20.762-20.762 20.762zM825.395 886.118h-429.414c-5.325 0-10.368-2.074-14.208-5.862l-197.325-195.482c-3.789-3.738-5.99-8.986-5.99-14.336v-640.384c0-11.136 9.062-20.173 20.198-20.173h626.714c11.136 0 20.173 9.062 20.173 20.173v835.891c0.026 11.11-9.037 20.173-20.147 20.173zM252.237 689.971l122.394 122.368v-122.368h-122.394zM804.019 842.624v-789.197h-582.042v594.995h174.464c13.363 0 21.658 11.238 21.658 21.658v172.544h385.92zM763.546 524.954c-2.765 3.942-6.349 7.091-10.701 9.344-0.486 0.23-2.995 1.229-3.379 1.357l-222.746 82.278c-9.882 3.149-19.482 3.123-27.904 0.333l-223.642-82.432c-0.768-0.256-3.328-1.254-4.173-1.664-4.147-2.176-7.731-5.299-10.266-8.96-0.384-0.512-1.485-2.202-1.613-2.534-2.662-4.557-3.968-9.37-3.968-14.31 0-5.197 1.562-10.138 5.299-16.435 2.816-4.070 6.426-7.245 10.778-9.472 0.486-0.23 2.995-1.229 3.379-1.357l84.122-31.181v-55.526c0-41.523 77.005-60.109 153.318-60.109s153.344 18.586 153.344 60.109v55.552l24.781 9.19v-60.262l-18.765-37.606c-4.582-9.165-0.819-20.403 8.397-25.062 9.19-4.506 20.403-0.768 25.062 8.371l3.994 8.013 4.019-8.038c3.174-6.323 9.574-10.266 16.691-10.266 2.893 0 5.786 0.666 8.32 1.971 4.48 2.227 7.808 6.042 9.37 10.778 1.613 4.762 1.229 9.805-0.998 14.285l-18.714 37.453v74.214l21.683 8.013c0.717 0.282 3.072 1.203 3.763 1.562 4.173 2.125 7.808 5.299 10.522 9.242l1.485 2.253c2.662 4.557 3.968 9.37 3.968 14.31-0.026 5.325-1.562 10.138-5.427 16.589zM715.366 508.365l-52.25-19.354c-13.491 34.867-87.322 47.59-151.091 47.59s-137.6-12.723-151.091-47.59l-52.326 19.43 199.322 73.677c3.098 1.126 4.966 1.126 9.293-0.307l198.144-73.446zM395.955 435.533l-0.256 40.243c4.070 6.912 44.621 24.269 116.301 24.269s112.23-17.382 115.968-22.758v-41.754c-58.342 24.525-173.67 24.55-232.013 0zM626.995 394.445c-8.346-7.654-48.128-22.758-114.97-22.758s-106.624 15.104-114.97 22.758c8.346 7.654 48.128 22.758 114.97 22.758 66.867 0 106.65-15.104 114.97-22.758z" />
<glyph unicode="&#xe91b;" glyph-name="essay--icon1" d="M618.010 464.256h-68.173c-11.443 0-20.762-9.293-20.762-20.762s9.293-20.762 20.762-20.762h68.173c11.443 0 20.762 9.293 20.762 20.762s-9.318 20.762-20.762 20.762zM453.632 464.256h-229.35c-11.443 0-20.762-9.293-20.762-20.762s9.293-20.762 20.762-20.762h229.35c11.443 0 20.762 9.293 20.762 20.762s-9.318 20.762-20.762 20.762zM618.010 566.963h-398.003c-11.443 0-20.762-9.293-20.762-20.762 0-11.418 9.293-20.736 20.762-20.736h398.003c11.443 0 20.762 9.293 20.762 20.736 0 11.469-9.318 20.762-20.762 20.762zM453.632 357.069h-229.35c-11.443 0-20.762-9.293-20.762-20.762s9.293-20.762 20.762-20.762h229.35c11.443 0 20.762 9.293 20.762 20.762s-9.318 20.762-20.762 20.762zM732.365 889.293h-429.389c-5.274 0-10.445-2.125-14.208-5.862l-197.325-195.456c-3.789-3.738-5.965-8.96-5.965-14.336v-640.384c0-11.136 9.062-20.173 20.173-20.173h626.714c11.162 0 20.198 9.062 20.198 20.173v835.866c0 11.11-9.062 20.173-20.198 20.173zM159.206 693.146l122.394 122.368v-122.368h-122.394zM711.014 845.798v-789.197h-582.042v594.995h174.464c13.389 0 21.683 11.238 21.683 21.658v172.544c0 0 385.894 0 385.894 0zM935.859 433.536l-40.525 68.941c-6.016 10.266-21.76 12.262-30.208 3.84-1.075-1.075-2.048-2.381-2.944-3.84l-40.55-68.966c-1.715-2.944-2.637-6.323-2.637-9.728v-397.85c0-10.624 8.627-19.251 19.226-19.251h81.050c5.171 0 10.010 1.997 13.568 5.632 3.635 3.584 5.709 8.55 5.658 13.594v397.824c0.051 3.43-0.87 6.81-2.637 9.805zM900.045 73.37v-28.211h-42.547v28.211h42.547zM900.045 418.534v-306.688h-42.547v306.688l21.274 36.198 21.274-36.198z" />
<glyph unicode="&#xe91c;" glyph-name="interviews--icon" d="M855.475 623.386c0 47.386-18.458 91.904-51.968 125.44-63.104 63.104-162.278 68.634-231.706 16.589l-10.675 10.675-35.763-35.738 10.675-10.675c-24.576-32.742-37.018-72.858-35.174-114.125l-305.562-328.422c-6.784-7.27-6.554-18.637 0.461-25.651l45.594-45.594c-27.341-32.051-32.154-53.299-36.506-72.371-3.712-16.435-7.014-30.976-29.926-57.318-8.755-10.035-8.55-25.011 0.845-34.458l0.333-0.333c10.189-10.189 27.059-9.677 36.506 1.178 31.744 36.48 36.89 59.264 41.549 79.744 3.379 14.874 6.195 27.29 23.014 47.718l38.989-38.989c7.040-7.040 18.355-7.219 25.651-0.461l328.397 305.562c2.688-0.128 5.402-0.179 8.090-0.179 38.426 0 75.469 12.39 106.061 35.379l10.675-10.675 35.738 35.738-10.675 10.675c22.938 30.515 35.379 67.43 35.379 106.291zM767.744 713.062c23.936-23.936 37.146-55.808 37.146-89.677 0-25.293-7.373-49.434-21.043-70.042l-175.795 175.795c49.229 32.614 116.378 27.29 159.693-16.077zM330.035 198.707l-76.646 76.646 274.202 294.682 97.152-97.152-294.707-274.176zM672.41 496.691l-121.037 121.037c-1.229 27.085 6.144 53.453 20.915 75.699l175.821-175.821c-22.246-14.771-48.614-22.144-75.699-20.915zM433.485 356.787l-22.016 22.016c-5.709 5.709-5.709 14.95 0 20.659l15.104 15.104c5.709 5.709 14.95 5.709 20.659 0l22.016-22.016c5.709-5.709 5.709-14.95 0-20.659l-15.13-15.104c-5.683-5.709-14.95-5.709-20.634 0z" />
<glyph unicode="&#xe91d;" glyph-name="presentation--icon" d="M928.794 833.459h-395.776v37.274c0 11.571-9.421 20.992-20.992 20.992s-20.992-9.421-20.992-20.992v-37.274h-395.827c-14.848 0-26.931-12.109-26.931-26.957v-571.238c0-14.848 12.083-26.957 26.931-26.957h366.182l-168.32-168.218c-3.968-3.942-6.144-9.216-6.144-14.848 0-5.606 2.176-10.88 6.17-14.874 7.91-7.808 21.76-7.859 29.67 0.026l168.243 168.32v-124.339c0-11.546 9.421-20.915 20.992-20.915s20.992 9.37 20.992 20.915v124.339l168.243-168.346c3.891-3.866 9.293-6.093 14.797-6.093 5.581 0 10.854 2.15 14.874 6.118 8.166 8.192 8.166 21.53 0 29.696l-168.32 168.218h366.182c14.848 0 26.957 12.109 26.957 26.957v571.238c0.026 14.848-12.083 26.957-26.931 26.957zM913.741 791.45v-541.133h-803.482v541.133h803.482zM749.312 575.974h-145.766c-11.52 0-20.89-9.421-20.89-20.992 0-11.52 9.37-20.89 20.89-20.89h145.766c11.571 0 20.992 9.37 20.992 20.89 0 11.571-9.421 20.992-20.992 20.992zM749.312 481.894h-145.766c-11.52 0-20.89-9.421-20.89-20.992 0-11.52 9.37-20.89 20.89-20.89h145.766c11.571 0 20.992 9.37 20.992 20.89 0 11.571-9.421 20.992-20.992 20.992zM822.221 670.106h-218.675c-11.52 0-20.89-9.395-20.89-20.966s9.37-20.992 20.89-20.992h218.675c11.571 0 20.966 9.421 20.966 20.992s-9.395 20.966-20.966 20.966zM518.426 523.648c0 1.254-0.102 2.483-0.179 3.738l-0.154 2.765c-0.077 2.381-0.154 4.762-0.358 7.091-0.307 3.661-0.717 7.168-1.306 10.906-0.282 2.022-0.538 4.070-0.896 6.272-0.742 3.917-1.613 7.834-2.611 11.802l-0.435 1.664c-0.282 1.178-0.563 2.406-0.896 3.482-1.203 4.045-2.534 7.987-4.070 12.237-0.538 1.562-1.075 3.098-1.638 4.557-1.203 3.021-2.586 6.016-3.968 9.011l-3.558 7.398c-1.126 2.099-2.355 4.147-3.584 6.221l-2.918 4.89c-0.819 1.434-1.664 2.842-2.637 4.301-0.922 1.459-1.946 2.79-2.97 4.147l-3.2 4.326c-1.459 1.971-2.867 3.968-4.506 5.939-3.558 4.25-7.194 8.346-11.162 12.365-3.763 3.763-7.782 7.245-12.493 11.187-2.381 1.946-4.864 3.738-7.962 5.99l-1.331 0.973c-1.638 1.28-3.354 2.56-4.992 3.635-1.69 1.152-3.456 2.176-5.197 3.2l-1.946 1.152c-2.765 1.664-5.555 3.379-8.704 5.018l-4.838 2.355c-3.738 1.792-7.501 3.482-11.213 4.941-1.357 0.563-2.662 1.024-4.557 1.69-4.096 1.485-8.141 2.893-12.134 3.994-1.69 0.538-3.379 0.922-5.12 1.331-3.891 0.998-7.885 1.894-11.981 2.662-1.766 0.307-3.533 0.538-6.426 0.947-3.456 0.512-7.014 0.896-10.522 1.178-2.79 0.256-5.555 0.41-8.166 0.461l-1.818 0.128c-2.048 0.154-2.278 0.307-7.475-0.051h-1.741c-0.845 0-1.664 0-2.509 0l-8.32-0.64-0.051-0.077c-88.525-8.371-157.491-83.968-157.491-173.184 0-95.949 78.054-174.029 174.029-174.029 41.651 0 82.125 15.206 113.562 42.496 0.538 0.307 1.050 0.614 2.253 1.715l0.742 0.947c32.23 29.133 52.224 68.659 56.499 111.565l0.819 9.242c0.051 0.819 0.026 1.613 0 2.458v1.664l0.128 3.942zM475.648 537.395h-117.632v117.606l1.741-0.179c3.149-0.41 6.323-0.87 9.216-1.382l2.944-0.563c3.763-0.819 7.501-1.766 11.853-3.046 41.318-13.030 73.702-45.44 86.835-87.322 1.101-3.712 2.048-7.475 3.072-12.262l0.358-1.818c0.563-3.046 1.050-6.144 1.434-9.318l0.179-1.715zM413.133 411.034c-20.71-12.723-44.314-19.405-68.762-19.405-72.858 0-132.122 59.213-132.122 132.019 0 62.669 43.238 115.738 103.885 128.896v-136.064c0-2.586 0-2.611 96.998-105.446zM473.242 495.411c-4.634-21.12-14.336-40.627-28.39-57.088l-57.114 57.088h85.504z" />
<glyph unicode="&#xe91e;" glyph-name="research--icon" d="M768.666 321.126h-193.715c-12.416 0-22.554-10.138-22.554-22.579 0-12.416 10.138-22.554 22.554-22.554h6.477c-23.757-14.259-51.174-21.99-78.31-21.99-83.968 0-152.269 68.326-152.269 152.294 0 39.987 16.205 79.053 44.467 107.418 18.304 0.998 35.174 8.627 48.051 21.658l61.875-61.875c8.986-8.96 20.89-13.875 33.587-13.875 9.472 0 18.534 2.765 26.368 8.013l61.338-61.338c8.525-8.474 23.322-8.525 31.949 0l50.56 50.586c4.25 4.275 6.605 9.958 6.605 15.949 0 6.016-2.355 11.699-6.605 15.949l-61.338 61.338c5.248 7.808 8.013 16.845 8.013 26.368 0 12.698-4.941 24.653-13.926 33.613l-188.134 188.109c-9.011 8.986-20.915 13.926-33.613 13.926-7.066 0-14.080-1.587-20.403-4.608l-32.691 32.666c-8.371 8.448-23.475 8.499-31.923 0.026l-60.006-59.981c-8.755-8.806-8.755-23.091 0-31.923l32.717-32.691c-2.995-6.272-4.582-13.286-4.608-20.378 0-12.723 4.941-24.678 13.926-33.638l22.682-22.656c-9.37-9.267-16.051-20.787-19.405-33.536-55.706-51.098-87.629-123.622-87.629-199.142 0-90.982 46.976-177.024 123.213-226.688-52.122-8.499-91.75-54.221-91.75-107.878 0-12.442 10.138-22.579 22.579-22.579h425.702c12.442 0 22.579 10.138 22.579 22.579 0 51.84-36.736 96.41-86.733 106.931 38.246 24.448 69.811 57.933 91.597 97.357h28.723c12.442 0 22.579 10.138 22.579 22.554 0.051 12.442-10.061 22.579-22.528 22.579zM365.824 777.549l-28.083-28.032-14.797 14.797 28.058 28.058 14.822-14.822zM503.117 181.069c-124.211 0-225.229 101.018-225.229 225.229 0 51.866 18.022 102.272 50.842 142.413 4.941-8.038 11.418-15.155 18.995-20.762-27.136-34.662-42.061-77.747-42.061-121.677 0-108.851 88.576-197.427 197.427-197.427 55.654 0 110.899 25.062 148.122 67.123h35.456c-42.445-59.52-110.618-94.899-183.552-94.899zM391.27 660.147c-2.765 0-5.581-0.154-8.346-0.486l-33.869 33.894c-0.486 0.461-0.717 1.024-0.717 1.664 0 0.614 0.256 1.203 0.717 1.664l69.35 69.376c0.435 0.435 1.024 0.666 1.664 0.666 0.614 0 1.229-0.23 1.638-0.691l188.16-188.134c0.486-0.461 0.691-0.998 0.691-1.664 0-0.998-0.538-1.536-0.691-1.664l-69.35-69.35c-0.845-0.896-2.509-0.896-3.354 0l-73.088 73.062c0.333 2.765 0.486 5.581 0.486 8.346-0.026 40.448-32.896 73.318-73.293 73.318zM419.43 586.88c0-15.488-12.621-28.134-28.16-28.134-15.488 0-28.134 12.621-28.134 28.134s12.621 28.16 28.134 28.16c15.539-0.026 28.16-12.646 28.16-28.16zM373.555 135.91h252.211c26.65 0 50.739-16.896 60.109-41.626h-372.429c9.344 24.704 33.459 41.626 60.109 41.626zM597.811 498.867l18.662 18.662 44.672-44.698-18.637-18.637-44.698 44.672z" />
<glyph unicode="&#xe91f;" glyph-name="review--icon" d="M711.014 280.755h-68.173c-11.443 0-20.762-9.318-20.762-20.787 0-11.418 9.293-20.736 20.762-20.736h68.173c11.443 0 20.762 9.293 20.762 20.736-0.026 11.443-9.318 20.787-20.762 20.787zM546.637 280.755h-229.35c-11.443 0-20.762-9.318-20.762-20.787 0-11.418 9.293-20.736 20.762-20.736h229.35c11.443 0 20.762 9.293 20.762 20.736-0.026 11.443-9.318 20.787-20.762 20.787zM711.014 383.437h-398.003c-11.443 0-20.762-9.318-20.762-20.787 0-11.418 9.293-20.736 20.762-20.736h398.003c11.443 0 20.762 9.293 20.762 20.736-0.026 11.469-9.318 20.787-20.762 20.787zM825.37 886.118h-429.389c-5.274 0-10.445-2.125-14.208-5.862l-197.35-195.482c-3.789-3.738-5.965-8.96-5.965-14.336v-640.384c0-11.136 9.062-20.173 20.173-20.173h626.714c11.162 0 20.198 9.062 20.198 20.173v835.891c0.026 11.11-9.037 20.173-20.173 20.173zM252.211 689.971l122.394 122.368v-122.368h-122.394zM804.019 842.624v-789.197h-582.067v594.995h174.464c13.389 0 21.683 11.238 21.683 21.658v172.544h385.92zM734.643 541.312c-2.33 7.091-8.346 12.186-15.744 13.286l-23.45 3.405-10.496 21.274c-3.328 6.707-10.035 10.854-17.51 10.854-7.45 0-14.131-4.147-17.485-10.88l-10.47-21.274-23.501-3.405c-7.373-1.101-13.389-6.17-15.718-13.286-2.304-7.091-0.41-14.771 4.941-19.994l16.998-16.538-3.994-23.347c-1.28-7.373 1.664-14.669 7.757-19.072 3.405-2.458 7.347-3.738 11.418-3.738 3.098 0 6.246 0.768 9.088 2.278l20.992 11.059 20.966-11.034c6.682-3.533 14.515-2.918 20.531 1.485 6.042 4.378 9.037 11.699 7.782 19.072l-4.019 23.373 16.973 16.538c5.35 5.197 7.245 12.877 4.941 19.942zM687.155 492.39l-10.624 5.581c-5.709 2.995-12.467 2.995-18.125 0l-10.624-5.581 2.022 11.802c1.075 6.323-0.998 12.774-5.606 17.28l-8.602 8.346 11.853 1.715c6.349 0.922 11.853 4.89 14.694 10.65l5.299 10.752 5.299-10.726c2.816-5.786 8.32-9.754 14.694-10.675l11.853-1.69-8.602-8.371v-0.026c-4.608-4.48-6.682-10.931-5.606-17.254l2.074-11.802zM579.174 541.312c-2.33 7.091-8.346 12.186-15.744 13.286l-23.45 3.405-10.496 21.274c-3.328 6.707-10.035 10.854-17.51 10.854s-14.182-4.173-17.485-10.88l-10.47-21.274-23.501-3.405c-7.373-1.101-13.389-6.17-15.718-13.286-2.304-7.091-0.41-14.771 4.941-19.994l16.998-16.538-4.019-23.373c-1.254-7.347 1.715-14.669 7.782-19.046 5.965-4.301 13.875-4.915 20.506-1.485l20.992 11.059 20.992-11.034c2.893-1.536 5.99-2.278 9.088-2.278 4.019 0 8.013 1.28 11.418 3.738 6.067 4.403 9.037 11.699 7.757 19.072l-3.994 23.373 16.973 16.538c5.376 5.248 7.245 12.902 4.941 19.994zM531.712 492.39l-10.624 5.581c-5.709 2.995-12.467 2.995-18.125 0l-10.624-5.581 2.022 11.802c1.075 6.323-0.998 12.774-5.606 17.28l-8.602 8.346 11.853 1.715c6.349 0.922 11.853 4.89 14.694 10.675l5.274 10.726 5.325-10.726c2.816-5.786 8.32-9.754 14.669-10.675l11.878-1.69-8.602-8.397c-4.608-4.48-6.682-10.931-5.606-17.254l2.074-11.802zM423.731 541.312c-2.33 7.091-8.346 12.186-15.744 13.286l-23.475 3.405-10.47 21.274c-3.328 6.707-10.035 10.854-17.51 10.854s-14.182-4.173-17.485-10.854l-10.496-21.299-23.475-3.405c-7.373-1.101-13.389-6.17-15.718-13.286-2.304-7.091-0.41-14.771 4.941-19.994l16.973-16.538-3.994-23.373c-1.254-7.347 1.715-14.669 7.782-19.046 3.405-2.458 7.347-3.738 11.418-3.738 3.072 0 6.195 0.768 9.062 2.278l20.992 11.059 20.992-11.034c6.682-3.533 14.515-2.918 20.531 1.485 6.067 4.403 9.037 11.699 7.757 19.072l-4.019 23.373 16.998 16.563c5.35 5.197 7.245 12.851 4.941 19.917zM376.243 492.39l-10.598 5.581c-5.709 2.995-12.467 2.995-18.125 0l-10.624-5.581 2.022 11.802c1.075 6.323-0.998 12.774-5.606 17.28l-8.602 8.346 11.853 1.715c6.349 0.922 11.853 4.89 14.694 10.675l5.274 10.726 5.325-10.752c2.842-5.76 8.32-9.728 14.669-10.65l11.853-1.69-8.576-8.371v-0.026c-4.608-4.48-6.682-10.931-5.606-17.254l2.048-11.802z" />
<glyph unicode="&#xe920;" glyph-name="term_paper--icon1" d="M832.87 287.795v0c-2.688 8.243-9.677 14.131-18.227 15.36l-29.056 4.198-13.005 26.317c-3.814 7.782-11.571 12.595-20.224 12.595-8.627 0-16.384-4.813-20.25-12.57l-12.979-26.342-29.056-4.224c-8.576-1.28-15.539-7.168-18.202-15.36-2.662-8.218-0.512-17.075 5.709-23.142l21.043-20.48-4.966-28.954c-1.459-8.499 1.997-16.947 8.986-22.016 3.891-2.842 8.474-4.352 13.261-4.352 3.635 0 7.245 0.896 10.496 2.637l26.010 13.67 26.010-13.67c7.68-4.019 16.768-3.354 23.757 1.715s10.419 13.517 8.986 22.067l-4.966 28.954 21.018 20.48c6.17 6.042 8.346 14.899 5.658 23.117zM777.728 226.739l-14.848 7.808c-3.277 1.715-6.886 2.611-10.47 2.611s-7.219-0.87-10.496-2.611l-14.822-7.808 2.816 16.538c1.254 7.322-1.178 14.797-6.502 19.968l-12.006 11.674 16.563 2.432c7.347 1.075 13.696 5.683 16.998 12.314l7.398 15.053 7.424-15.002c3.277-6.682 9.626-11.29 16.998-12.365l16.563-2.406-12.006-11.674v-0.026c-5.325-5.197-7.731-12.672-6.477-19.968l2.867-16.538zM643.2 495.309h-68.173c-11.443 0-20.762-9.293-20.762-20.762s9.293-20.762 20.762-20.762h68.173c11.443 0 20.762 9.293 20.762 20.762s-9.318 20.762-20.762 20.762zM478.822 495.309h-229.35c-11.443 0-20.762-9.293-20.762-20.762s9.293-20.762 20.762-20.762h229.35c11.443 0 20.762 9.293 20.762 20.762s-9.318 20.762-20.762 20.762zM643.2 598.016h-398.003c-11.443 0-20.762-9.293-20.762-20.762 0-11.418 9.293-20.736 20.762-20.736h398.003c11.443 0 20.762 9.293 20.762 20.736 0 11.469-9.318 20.762-20.762 20.762zM478.822 388.122h-229.35c-11.443 0-20.762-9.293-20.762-20.762s9.293-20.762 20.762-20.762h229.35c11.443 0 20.762 9.293 20.762 20.762s-9.318 20.762-20.762 20.762zM913.382 267.546c0 80.102-58.88 146.534-135.629 158.771v473.856c0 11.136-9.062 20.173-20.198 20.173h-429.389c-5.274 0-10.445-2.125-14.208-5.862l-197.35-195.482c-3.789-3.738-5.965-8.96-5.965-14.336v-640.384c0-11.136 9.062-20.173 20.173-20.173h510.106l-2.125-43.648c0-9.702 5.658-18.56 14.387-22.528 3.277-1.536 6.758-2.278 10.189-2.278 5.76 0 11.418 2.074 16.077 6.067l72.934 62.822 72.986-62.874c7.245-6.195 17.766-7.629 26.24-3.763 8.73 3.994 14.387 12.851 14.336 23.398l-7.117 145.715c33.357 29.568 54.554 72.576 54.554 120.525zM306.79 846.566v-122.368h-122.394l122.394 122.368zM154.163 87.654v594.995h174.464c13.389 0 21.683 11.238 21.683 21.658v172.544h385.894v-449.152c-81.178-8.141-144.794-76.877-144.794-160.154 0-47.949 21.197-90.957 54.554-120.474l-2.893-59.443-488.909 0.026zM768.973 81.203c-9.472 8.883-23.757 8.858-33.126 0.102l-57.062-49.152 4.531 90.189c20.966-10.010 44.314-15.77 69.043-15.77s48.102 5.76 69.043 15.795l4.531-90.189-56.96 49.024zM752.358 145.178c-67.482 0-122.368 54.912-122.368 122.368s54.912 122.368 122.368 122.368c67.507 0 122.394-54.912 122.394-122.368s-54.886-122.368-122.394-122.368z" />
<glyph unicode="&#xe921;" glyph-name="Active_writers--icon" horiz-adv-x="1178" d="M923.392 167.168h232.192l-8.602 41.779c-1.024 4.813-25.19 118.118-113.203 170.189-33.946 20.224-79.411 27.904-119.501 34.714-21.811 3.686-53.709 9.114-65.28 15.309 0.768 26.112 7.475 34.611 23.91 55.398 4.403 5.581 9.114 11.622 15.309 20.019 24.218 32.87 57.344 77.875 67.123 176.589 7.68 78.080-12.186 149.811-54.682 196.71-34.918 38.605-83.302 58.88-139.827 58.88-44.851 0-82.483-6.81-116.634-37.581-35.789 21.709-77.978 33.178-124.877 33.178-70.093 0-129.894-25.088-172.954-72.602-52.941-58.522-77.824-148.224-68.147-246.221 12.339-124.416 54.118-181.299 84.582-222.822l1.69-2.202c6.349-8.704 12.288-16.282 17.92-23.398 23.194-29.389 33.024-41.779 33.229-83.2-10.957-10.394-61.952-19.098-92.826-24.32-50.893-8.704-108.493-18.381-150.784-43.52-109.773-64.973-139.981-207.104-141.312-213.094l-8.704-41.728h994.355l-8.55 41.779c-1.024 4.813-20.736 96.307-84.429 166.144zM848.998 831.13c29.286-32.41 42.803-84.48 37.018-143.206-7.782-79.718-32.307-112.896-55.142-143.923-4.454-6.093-8.653-11.418-12.595-16.384-20.070-25.395-39.014-49.408-39.014-103.987 0-57.395 65.536-68.608 123.341-78.387 34.15-5.786 72.806-12.39 95.693-26.010 33.382-19.712 54.221-54.682 66.304-82.483h-249.498c-0.512 0-0.973-0.205-1.382-0.205-31.693 9.779-66.202 15.718-98.099 21.094-30.822 5.222-81.869 13.926-92.826 24.32 0.205 41.421 9.984 53.811 33.178 83.2 5.581 7.117 11.622 14.694 17.971 23.398l1.638 2.202c30.515 41.421 72.294 98.304 84.634 222.822 9.37 94.515-13.722 180.992-62.822 239.514 13.414 9.626 30.515 14.080 63.283 14.080 36.966-0.051 66.611-12.134 88.32-36.045zM111.923 28.826c15.002 38.912 44.288 94.976 95.488 125.389 31.13 18.483 82.074 27.085 126.976 34.816 74.138 12.595 150.784 25.6 150.784 91.187 0 67.021-22.374 95.283-48.179 128-5.171 6.502-10.701 13.517-16.486 21.504l-1.69 2.304c-27.136 36.915-60.928 82.893-71.424 188.416-7.68 78.387 10.65 148.582 50.432 192.512 29.952 33.126 70.81 49.818 121.395 49.818s91.392-16.691 121.344-49.715c39.731-43.981 58.163-114.176 50.33-192.614-10.394-105.626-44.186-151.501-71.424-188.518l-1.69-2.202c-5.786-7.987-11.315-15.002-16.435-21.504-25.856-32.717-48.128-60.979-48.128-128 0-65.587 76.595-78.592 150.784-91.187 44.902-7.68 95.846-16.282 126.976-34.816 51.2-30.413 80.486-86.477 95.386-125.389h-814.438z" />
<glyph unicode="&#xe922;" glyph-name="Customer_fulfillment--icon" d="M516.23 836.141c-159.477 0-289.258-129.736-289.258-289.258s129.781-289.258 289.258-289.258c159.477 0 289.213 129.736 289.213 289.258s-129.736 289.258-289.213 289.258zM516.23 318.13c-126.13 0-228.708 102.623-228.708 228.753s102.578 228.708 228.708 228.708c126.086 0 228.708-102.578 228.708-228.708s-102.623-228.753-228.708-228.753zM430.97 648.659c0-16.785 13.579-30.364 30.275-30.364h46.035v-203.464c0-16.696 13.579-30.275 30.275-30.275 16.74 0 30.319 13.579 30.319 30.275v264.103h-106.63c-16.696 0-30.275-13.579-30.275-30.275zM842.618 310.517c48.351 66.515 77.156 148.079 77.156 236.41 0 222.52-180.981 403.59-403.545 403.59s-403.59-181.070-403.59-403.59c0-86.061 27.292-165.799 73.372-231.29l-184.008-202.44 161.614-8.949 34.816-158.72 191.711 218.201c39.758-13.134 82.054-20.435 126.086-20.435 41.672 0 81.831 6.322 119.674 18.076l189.663-215.886 34.816 158.72 161.614 8.949-179.378 197.365zM231.914 75.353l-18.966 86.817-80.54 4.452 92.516 101.732c30.72-32.145 66.605-59.125 106.496-79.827l-99.506-113.174zM173.145 546.883c0 189.173 153.912 343.040 343.085 343.040 189.128 0 343.040-153.867 343.040-343.040s-153.912-343.085-343.040-343.085c-189.173 0-343.085 153.912-343.085 343.085zM811.097 162.17l-19.055-86.817-96.924 110.369c40.292 19.99 76.934 46.258 108.232 78.002l88.242-97.146-80.495-4.408z" />
<glyph unicode="&#xe923;" glyph-name="Pages_written--icon" horiz-adv-x="931" d="M930.909 727.738h-1.443l-211.642 219.555-0.279-0.279v0.372h-454.191v-234.636h-234.589v-764.090h667.462v234.636h234.682v544.442zM841.542 727.738h-123.997v128.559l123.997-128.559zM632.925 12.009h-540.812v637.347h327.587v-219.555h213.225v-417.792zM606.953 493.103h-123.997v129.071l123.997-129.071zM867.654 246.644h-171.427v246.458h-1.489l-211.549 220.253-0.745-0.652h-155.741v171.287h327.587v-219.555h213.364v-417.792z" />
<glyph unicode="&#xe924;" glyph-name="Words_written--icon" horiz-adv-x="878" d="M867.913 653.385l-278.918 288.085v1.024h-581.096v-988.989h861.964v699.88h-1.95zM775.656 653.385h-186.661v192.756l186.661-192.756zM803.547 19.773h-729.332v856.405h448.463v-289.158h280.869v-567.247zM207.726 428.642c0-18.286 14.824-33.158 33.158-33.158h384.926c18.286 0 33.158 14.872 33.158 33.158s-14.872 33.158-33.158 33.158h-384.926c-18.334 0-33.158-14.872-33.158-33.158zM625.762 262.949h-384.878c-18.334 0-33.158-14.872-33.158-33.158 0-18.383 14.824-33.158 33.158-33.158h384.926c18.286 0 33.158 14.775 33.158 33.158-0.049 18.286-14.921 33.158-33.207 33.158z" />
<glyph unicode="&#xe925;" glyph-name="approve_your_order--icon" horiz-adv-x="1052" d="M253.298 414.364h329.998c10.112 0 18.304 8.192 18.304 18.304s-8.192 18.304-18.304 18.304h-329.998c-10.112 0-18.304-8.192-18.304-18.304s8.192-18.304 18.304-18.304zM253.298 514.418h329.998c10.112 0 18.304 8.192 18.304 18.304s-8.192 18.304-18.304 18.304h-329.998c-10.112 0-18.304-8.192-18.304-18.304s8.192-18.304 18.304-18.304zM253.298 614.471h329.998c10.112 0 18.304 8.192 18.304 18.304s-8.192 18.304-18.304 18.304h-329.998c-10.112 0-18.304-8.192-18.304-18.304s8.192-18.304 18.304-18.304zM363.108 272.853h-109.81c-10.112 0-18.304-8.192-18.304-18.304s8.192-18.304 18.304-18.304h109.81c10.112 0 18.304 8.192 18.304 18.304s-8.206 18.304-18.304 18.304zM939.42 287.033h-55.424c-5.504 0-10.809-1.024-15.815-3.029-4.523 8.903-10.126 16.896-16.74 23.865-0.512 0.512-1.138 1.138-1.977 1.721-26.069 20.196-58.254 93.028-72.050 129.749 1.18 10.283 2.247 32.896-8.86 45.81-0.796 0.924-1.664 1.778-2.546 2.574v350.649c0 10.112-8.192 18.304-18.304 18.304h-128.114v18.304c0 10.112-8.192 18.304-18.304 18.304h-109.838c-17.166 22.812-44.302 36.608-73.173 36.608s-56.021-13.796-73.173-36.608h-109.838c-10.112 0-18.304-8.192-18.304-18.304v-18.304h-128.114c-10.112 0-18.304-8.192-18.304-18.304v-841.856c0-10.112 8.192-18.304 18.304-18.304h658.844c10.112 0 18.304 8.192 18.304 18.304v56.249c42.14 1.721 75.008 6.030 75.364 6.087l19.641 2.347c6.855-4.409 14.763-6.741 22.983-6.741h55.424c23.41 0 42.453 19.044 42.453 42.453v147.669c0.014 23.41-19.029 42.453-42.439 42.453zM253.582 856.676h101.319c6.528 0 12.572 3.484 15.844 9.131 9.799 16.939 28.018 27.463 47.545 27.463s37.746-10.524 47.545-27.463c3.271-5.66 9.301-9.131 15.844-9.131h101.319v-73.202h-329.415v73.202zM107.179 14.82v805.248h109.81v-54.898c0-10.112 8.192-18.304 18.304-18.304h366.023c10.112 0 18.304 8.192 18.304 18.304v54.898h109.81v-327.879c-10.354-2.901-22.67-9.031-31.929-21.788-15.232-21.006-16.242-52.068-3.015-92.331 7.964-24.164 10.453-37.959 11.036-45.568-3.129 0.654-6.002 1.223-8.704 1.707l-0.213 0.028c-3.342 0.725-22.457 4.722-45.184 5.76-35.186 1.692-60.885-4.594-76.331-18.66-23.225-21.191-17.38-47.815-13.639-58.581-5.134-7.253-10.681-18.148-11.221-31.787-0.569-12.928 3.499-25.401 12.075-37.092-1.394-4.281-2.816-10.212-3.157-17.209-0.654-13.028 2.418-31.957 20.366-49.18-0.939-9.23-0.256-22.172 7.012-35.271 10.311-18.603 30.35-31.175 59.52-37.362 12.075-2.603 26.61-3.925 43.236-3.925 9.23 0 19.228 0.412 30.578 1.266 3.2-0.057 6.4-0.1 9.586-0.114v-37.262h-622.265zM841.714 92.971l-4.608-0.54c-0.569-0.071-59.62-7.666-117.504-6.414h-1.28l-0.37-0.014c-27.15-2.162-48.981-1.522-64.91 1.92-19.157 4.068-31.644 11.065-37.077 20.793-4.836 8.647-2.588 17.948-2.076 19.783 2.404 6.94 0.085 14.578-5.831 19.1-10.809 8.107-15.787 17.095-15.232 27.477 0.313 5.988 2.375 10.766 3.57 13.084 0.014 0.028 0.043 0.071 0.057 0.1 3.854 6.457 2.901 14.748-2.361 20.252l-0.028 0.028c-6.983 7.211-10.368 14.308-10.055 21.134 0.356 9.572 7.723 17.081 8.619 17.963 6.258 5.689 7.467 14.82 2.958 21.646-1.664 2.688-9.372 16.654 2.276 27.292 15.132 13.781 62.393 11.164 90.951 4.935 0.228-0.057 0.484-0.114 0.74-0.171l0.839-0.185c4.395-0.725 9.387-1.721 15.26-3.072 6.713-2.318 16.512-2.318 24.192 4.537 13.924 12.359 13.013 37.348-3.129 86.258-9.387 28.487-9.998 50.46-1.735 61.895 5.262 7.268 13.54 9.444 18.588 10.084 0.754-4.181 1.138-12.388-0.128-20.665-0.498-2.916-0.228-5.874 0.754-8.462 4.295-11.748 43.008-115.499 83.612-148.039 9.003-9.799 13.326-21.12 15.246-27.733-1.024-3.74-1.536-7.524-1.536-11.292v-147.755c0.028-1.323 0.085-2.645 0.199-3.94zM948.039 96.924c0-4.338-3.214-7.922-7.381-8.533h-56.676c-4.75 0-8.619 3.868-8.619 8.619v147.669c0 4.75 3.868 8.619 8.619 8.619h55.424c4.75 0 8.619-3.868 8.619-8.619l0.014-147.755z" />
<glyph unicode="&#xe926;" glyph-name="place_your_order--icon" horiz-adv-x="1052" d="M274.375 408.32h329.998c10.112 0 18.304 8.192 18.304 18.304s-8.192 18.304-18.304 18.304h-329.998c-10.112 0-18.304-8.192-18.304-18.304s8.206-18.304 18.304-18.304zM274.375 508.373h329.998c10.112 0 18.304 8.192 18.304 18.304s-8.192 18.304-18.304 18.304h-329.998c-10.112 0-18.304-8.192-18.304-18.304s8.206-18.304 18.304-18.304zM274.375 608.427h329.998c10.112 0 18.304 8.192 18.304 18.304s-8.192 18.304-18.304 18.304h-329.998c-10.112 0-18.304-8.192-18.304-18.304s8.206-18.304 18.304-18.304zM274.375 230.201h109.81c10.112 0 18.304 8.192 18.304 18.304s-8.192 18.304-18.304 18.304h-109.81c-10.112 0-18.304-8.192-18.304-18.304s8.206-18.304 18.304-18.304zM960.782 217.515c0 98.19-76.928 178.759-173.696 184.59v430.208c0 10.112-8.192 18.304-18.304 18.304h-128.114v18.304c0 10.112-8.192 18.304-18.304 18.304h-109.838c-17.166 22.812-44.302 36.608-73.173 36.608s-56.021-13.796-73.173-36.608h-109.838c-10.112 0-18.304-8.192-18.304-18.304v-18.304h-128.114c-10.112 0-18.304-8.192-18.304-18.304v-841.856c0-10.112 8.192-18.304 18.304-18.304h658.844c10.112 0 18.304 8.192 18.304 18.304v42.453c96.782 5.86 173.71 86.414 173.71 184.604zM274.674 850.631h101.319c6.528 0 12.572 3.484 15.844 9.131 9.799 16.939 28.018 27.463 47.545 27.463s37.746-10.524 47.545-27.463c3.271-5.66 9.301-9.131 15.844-9.131h101.319v-73.202h-329.415c0 0 0 73.202 0 73.202zM128.256 8.775v805.248h109.81v-54.898c0-10.112 8.192-18.304 18.304-18.304h366.023c10.112 0 18.304 8.192 18.304 18.304v54.898h109.81v-413.312c-90.027-12.402-159.588-89.813-159.588-183.196s69.561-170.795 159.588-183.196v-25.557l-622.251 0.014zM775.851 66.034c-6.201 0-12.316 0.412-18.318 1.152l-7.026 2.261v-1.252c-71.495 12.103-126.137 74.439-126.137 149.319 0 83.527 67.954 151.481 151.481 151.481s151.481-67.954 151.481-151.481-67.954-151.481-151.481-151.481zM860.629 286.592c-7.822 6.4-19.356 5.234-25.756-2.603l-75.122-91.989-42.638 55.026c-6.187 7.993-17.692 9.444-25.671 3.257-7.993-6.187-9.444-17.692-3.257-25.671l56.732-73.202c3.413-4.409 8.661-7.012 14.236-7.083 0.085 0 0.156 0 0.228 0 5.49 0 10.695 2.46 14.18 6.727l89.671 109.81c6.386 7.808 5.22 19.342-2.603 25.728z" />
<glyph unicode="&#xe927;" glyph-name="track_your_order--icon" horiz-adv-x="1052" d="M206.436 429.767h329.998c10.112 0 18.304 8.192 18.304 18.304s-8.192 18.304-18.304 18.304h-329.998c-10.112 0-18.304-8.192-18.304-18.304s8.206-18.304 18.304-18.304zM206.436 529.82h329.998c10.112 0 18.304 8.192 18.304 18.304s-8.192 18.304-18.304 18.304h-329.998c-10.112 0-18.304-8.192-18.304-18.304s8.206-18.304 18.304-18.304zM206.436 629.874h329.998c10.112 0 18.304 8.192 18.304 18.304s-8.192 18.304-18.304 18.304h-329.998c-10.112 0-18.304-8.192-18.304-18.304s8.206-18.304 18.304-18.304zM206.436 251.648h109.81c10.112 0 18.304 8.192 18.304 18.304s-8.192 18.304-18.304 18.304h-109.81c-10.112 0-18.304-8.192-18.304-18.304s8.206-18.304 18.304-18.304zM1014.187 35.399l-145.977 145.977c15.659 27.136 24.633 58.61 24.633 92.132 0 98.19-76.928 178.759-173.696 184.59v395.676c0 10.112-8.192 18.304-18.304 18.304h-128.114v18.304c0 10.112-8.192 18.304-18.304 18.304h-109.838c-17.166 22.812-44.302 36.608-73.173 36.608s-56.021-13.796-73.173-36.608h-109.838c-10.112 0-18.304-8.192-18.304-18.304v-18.304h-128.114c-10.112 0-18.304-8.192-18.304-18.304v-841.856c0-10.112 8.192-18.304 18.304-18.304h658.844c10.112 0 18.304 8.192 18.304 18.304v76.999c28.288 1.707 54.884 9.799 78.35 22.855l146.532-146.532c9.372-9.372 21.831-14.535 35.072-14.535s25.7 5.163 35.072 14.535c9.372 9.372 14.535 21.831 14.535 35.086s-5.12 25.714-14.507 35.072zM206.72 872.078h101.319c6.528 0 12.572 3.484 15.844 9.131 9.799 16.939 28.018 27.463 47.545 27.463s37.746-10.524 47.545-27.463c3.271-5.66 9.301-9.131 15.844-9.131h101.319v-73.202h-329.415c0 0 0 73.202 0 73.202zM60.316 30.222v805.248h109.81v-54.898c0-10.112 8.192-18.304 18.304-18.304h366.023c10.112 0 18.304 8.192 18.304 18.304v54.898h109.81v-378.766c-90.027-12.402-159.588-89.813-159.588-183.196s69.561-170.795 159.588-183.196v-60.089h-622.251zM707.911 122.027c-83.527 0-151.481 67.954-151.481 151.481s67.954 151.481 151.481 151.481 151.481-67.954 151.481-151.481c0-83.527-67.954-151.481-151.481-151.481zM850.46 105.742l-23.268 23.268c8.292 7.168 16.071 14.948 23.239 23.239l23.268-23.268c-7.225-8.22-15.019-16.014-23.239-23.239zM990.748-11.292v0c-3.115-3.115-7.239-4.821-11.62-4.821s-8.519 1.707-11.62 4.821l-93.54 93.54c8.164 7.296 15.957 15.090 23.239 23.239l93.54-93.554c3.1-3.1 4.821-7.225 4.821-11.62s-1.721-8.505-4.821-11.605zM841.188 286.279l-0.043 0.043c-40.988 50.404-85.561 75.961-132.48 75.961-18.631 0-37.547-4.139-56.235-12.288-14.549-6.414-28.9-15.232-42.667-26.226-23.58-18.887-37.49-37.945-37.604-38.087-4.281-5.888-4.096-13.98 0.484-19.712 40.889-50.404 85.461-75.961 132.48-75.961 18.645 0 37.547 4.139 56.235 12.288 14.549 6.414 28.914 15.232 42.667 26.226 23.78 19.044 37.504 37.959 37.589 38.073 4.295 5.888 4.124 13.98-0.427 19.684zM807.467 276.011c-5.305-5.874-13.568-14.279-24.036-22.585v0c-17.835-14.194-45.909-31.118-78.293-31.118-33.721 0-66.958 18.133-98.844 53.902 5.276 5.817 13.497 14.18 24.036 22.585 17.835 14.194 45.909 31.132 78.293 31.132 33.721-0.014 66.958-18.133 98.844-53.916zM740.437 291.726c-8.604 0-15.616-6.997-15.616-15.602 0-9.913-8.064-17.977-17.977-17.977s-17.977 8.064-17.977 17.977 8.064 17.977 17.977 17.977c8.604 0 15.602 6.997 15.602 15.602s-6.997 15.616-15.602 15.616c-27.122 0-49.195-22.073-49.195-49.195s22.073-49.195 49.195-49.195 49.195 22.073 49.195 49.195c0 8.59-6.997 15.602-15.602 15.602z" />
<glyph unicode="&#xe928;" glyph-name="articles--icon" horiz-adv-x="1166" d="M841.5 511.118c10.126 0 18.361 8.235 18.361 18.361 0.014 4.907-1.892 9.5-5.376 12.999-3.484 3.456-8.064 5.348-12.9 5.348h-258.503c-10.126 0-18.375-8.249-18.375-18.389 0-10.112 8.249-18.361 18.375-18.361l258.418 0.043zM841.543 349.056c10.126 0 18.361 8.235 18.361 18.361s-8.263 18.361-18.404 18.361l-258.432-0.043c-10.126 0-18.375-8.235-18.375-18.361s8.249-18.361 18.375-18.361l258.475 0.043zM583.111 223.701c-10.126 0-18.361-8.235-18.361-18.361s8.235-18.361 18.361-18.361h258.446c10.126 0 18.361 8.263 18.361 18.404 0 10.126-8.235 18.361-18.361 18.361l-258.446-0.043zM196.679 547.755c-10.126 0-18.361-8.235-18.361-18.361l0.043-258.446c0-10.126 8.235-18.361 18.361-18.361l258.446 0.043c10.126 0 18.361 8.235 18.361 18.361v258.446c0 10.126-8.263 18.361-18.404 18.361l-258.446-0.043zM215.111 289.323l-0.028 221.682 221.682 0.028 0.057-221.682-221.71-0.028zM196.722 710.485c-10.126 0-18.361-8.235-18.361-18.361 0-10.112 8.235-18.361 18.361-18.361h644.836c10.126 0 18.361 8.235 18.361 18.361s-8.235 18.361-18.361 18.361h-644.836zM969.472 941.98h-900.665c-24.249 0-43.989-19.726-43.989-43.975v-818.773c0-66.56 54.172-120.704 120.747-120.704h875.065c66.588 0 120.747 54.158 120.747 120.704v690.83c0 24.263-19.726 44.004-43.947 44.004h-84.011v83.954c0.014 24.249-19.698 43.961-43.947 43.961zM1033.5 97.508c-11.036 0-20.025 8.974-20.025 19.996v659.769h91.221l-0.043-698.041c0-46.322-37.675-83.982-84.011-83.982h-875.065c-46.322 0-83.982 37.66-83.982 83.982v825.998h915.129v-787.669c0-31.289 25.486-56.761 56.789-56.761 10.126 0 18.375 8.235 18.375 18.361s-8.263 18.347-18.389 18.347z" />
<glyph unicode="&#xe929;" glyph-name="case_study--icon" horiz-adv-x="1052" d="M394.366 934.358c-3.591 0-7.126-1.459-9.693-3.998l-223.919-221.787c-2.595-2.553-4.068-6.116-4.068-9.791v-726.633c0-7.589 6.172-13.761 13.775-13.761h711.119c7.603 0 13.789 6.172 13.789 13.761v948.434c0 7.603-6.186 13.775-13.789 13.775h-487.214zM379.231 881.769v-169.97h-170.012l170.012 169.97zM866.472-10.485h-678.66v693.374h207.086c10.563 0 15.486 9.216 15.486 15.458v204.898h456.087v-913.731zM756.792 458.675c-2.469 8.641-11.502 13.705-20.171 11.194-8.641-2.469-13.677-11.516-11.194-20.171 5.471-19.119 8.234-38.968 8.234-58.985 0-117.942-95.947-213.89-213.89-213.89s-213.904 95.947-213.904 213.89 95.947 213.904 213.904 213.904c20.073 0 39.95-2.777 59.055-8.262 4.236-1.22 8.613-0.701 12.428 1.403 3.801 2.118 6.579 5.583 7.771 9.763 1.206 4.194 0.715 8.599-1.403 12.414s-5.583 6.579-9.777 7.785c-22.037 6.326-44.944 9.539-68.075 9.539-135.94 0-246.532-110.592-246.532-246.532 0-135.925 110.592-246.517 246.532-246.517 135.925 0 246.517 110.592 246.517 246.517 0 23.061-3.198 45.912-9.497 67.949zM612.45 398.848c-0.8 8.907-8.613 15.655-17.703 14.813-8.949-0.8-15.584-8.739-14.813-17.717 0.154-1.711 0.238-3.479 0.238-5.232 0-33.315-27.101-60.416-60.402-60.416-33.315 0-60.43 27.101-60.43 60.416s27.115 60.43 60.43 60.43c1.852 0 3.689-0.084 5.415-0.238 8.992-0.898 16.917 5.793 17.745 14.743 0.828 8.964-5.793 16.917-14.757 17.745-2.707 0.252-5.541 0.379-8.402 0.379-51.312 0-93.058-41.746-93.058-93.058 0-51.298 41.746-93.044 93.058-93.044s93.044 41.746 93.044 93.044c0.014 2.721-0.112 5.457-0.365 8.136zM820.953 605.752c-4.503 10.927-15.065 17.983-26.905 17.983h-41.17v41.156c0 11.825-7.056 22.388-17.969 26.905s-23.37 2.048-31.744-6.312l-74.626-74.626c-7.911-7.897-12.274-18.432-12.274-29.64v-71.035l-103.087-103.073c-6.354-6.368-6.354-16.721 0-23.089 3.086-3.086 7.196-4.783 11.545-4.783s8.444 1.697 11.545 4.783l103.073 103.073h71.035c11.194 0 21.714 4.363 29.64 12.274l74.626 74.626c8.374 8.402 10.857 20.845 6.312 31.758zM785.59 591.093l-68.664-68.636c-1.711-1.725-4.096-2.707-6.551-2.707h-38.407l71.371 71.357 42.251-0.014zM720.265 656.419v-42.251l-71.357-71.357v38.407c0 2.483 0.954 4.825 2.707 6.565l68.65 68.636z" />
<glyph unicode="&#xe92a;" glyph-name="download--icon" d="M763.252 425.891c10.38 10.38 10.38 26.764 0 37.143-10.054 10.426-26.764 10.426-36.817 0l-188.416-188.090v621.428c0 14.522-11.543 26.391-25.926 26.391-14.569 0-26.438-11.869-26.438-26.391v-621.428l-188.090 188.090c-10.38 10.426-27.089 10.426-37.143 0-10.426-10.38-10.426-26.764 0-37.143l233.007-233.007c10.054-10.054 26.764-10.054 37.143 0l232.681 233.007zM947.898 255.302c0 14.522 11.543 25.926 26.065 25.926s26.391-11.404 26.391-25.926v-255.767c0-14.383-11.869-26.298-26.391-26.298h-924.253c-14.522 0-26.065 11.869-26.065 26.298v255.767c0 14.522 11.543 25.926 26.065 25.926 14.383 0 26.298-11.404 26.298-25.926v-229.702h871.889v229.702z" />
<glyph unicode="&#xe92b;" glyph-name="essay--icon" horiz-adv-x="1052" d="M653.214 452.082h-77.347c-7.954 0-14.448-6.481-14.448-14.434 0-7.968 6.481-14.434 14.448-14.434h77.347c7.954 0 14.434 6.467 14.434 14.434 0 7.954-6.481 14.434-14.434 14.434zM466.706 423.2c7.954 0 14.434 6.467 14.434 14.434 0 7.954-6.481 14.434-14.434 14.434h-260.25c-7.968 0-14.448-6.481-14.448-14.434 0-7.968 6.481-14.434 14.448-14.434h260.25zM653.214 568.622h-451.612c-7.954 0-14.434-6.481-14.434-14.434s6.481-14.42 14.434-14.42h451.598c7.954 0 14.434 6.467 14.434 14.42 0.014 7.954-6.467 14.434-14.42 14.434zM466.706 301.582c7.954 0 14.434 6.467 14.434 14.42s-6.481 14.434-14.434 14.434h-260.25c-7.968 0-14.448-6.481-14.448-14.434s6.481-14.42 14.448-14.42h260.25zM295.754 934.358c-3.591 0-7.126-1.459-9.693-3.998l-223.919-221.787c-2.595-2.553-4.068-6.116-4.068-9.791v-726.633c0-7.589 6.172-13.761 13.775-13.761h711.119c7.603 0 13.789 6.172 13.789 13.761v948.434c0 7.603-6.186 13.775-13.789 13.775h-487.214zM280.618 881.769v-169.97h-170.012l170.012 169.97zM767.86-10.485h-678.66v693.374h207.086c10.563 0 15.486 9.216 15.486 15.458v204.898h456.087v-913.731zM1006.003 421.727l-45.968 78.231c-1.781 3.044-5.288 5.176-9.37 5.695-0.645 0.084-1.291 0.126-1.922 0.126-3.395 0-6.551-1.178-8.683-3.296-0.645-0.631-1.305-1.529-2.006-2.665l-45.926-78.105c-1.136-1.95-1.739-4.18-1.739-6.425v-451.43c0-7.014 5.695-12.723 12.695-12.723h91.964c3.423 0 6.579 1.291 8.893 3.647 2.455 2.427 3.844 5.737 3.801 8.964v451.472c0.042 2.329-0.561 4.517-1.725 6.481l-0.014 0.028zM982.353-23.461h-66.518v50.26h66.518v-50.26zM982.353 52.203h-66.518v359.592l33.259 56.601 33.259-56.601c0 0 0-359.592 0-359.592z" />
<glyph unicode="&#xe92c;" glyph-name="lab_report--icon" horiz-adv-x="1052" d="M653.214 452.082h-77.347c-7.954 0-14.448-6.481-14.448-14.434 0-7.968 6.481-14.434 14.448-14.434h77.347c7.954 0 14.434 6.467 14.434 14.434 0 7.954-6.481 14.434-14.434 14.434zM466.706 423.2c7.954 0 14.434 6.467 14.434 14.434 0 7.954-6.481 14.434-14.434 14.434h-260.25c-7.968 0-14.448-6.481-14.448-14.434 0-7.968 6.481-14.434 14.448-14.434h260.25zM653.214 568.622h-451.612c-7.954 0-14.434-6.481-14.434-14.434s6.481-14.42 14.434-14.42h451.598c7.954 0 14.434 6.467 14.434 14.42 0.014 7.954-6.467 14.434-14.42 14.434zM466.706 301.582c7.954 0 14.434 6.467 14.434 14.42s-6.481 14.434-14.434 14.434h-260.25c-7.968 0-14.448-6.481-14.448-14.434s6.481-14.42 14.448-14.42h260.25zM295.754 934.358c-3.591 0-7.126-1.459-9.693-3.998l-223.919-221.787c-2.595-2.553-4.068-6.116-4.068-9.791v-726.633c0-7.589 6.172-13.761 13.775-13.761h711.119c7.603 0 13.789 6.172 13.789 13.761v948.434c0 7.603-6.186 13.775-13.789 13.775h-487.214zM280.618 881.769v-169.97h-170.012l170.012 169.97zM767.86-10.485h-678.66v693.374h207.086c10.563 0 15.486 9.216 15.486 15.458v204.898h456.087v-913.731zM941.519 115.986c3.493 0 6.901 1.431 9.356 3.886 2.469 2.441 3.886 5.849 3.886 9.356 0 3.521-1.431 6.93-3.872 9.356-4.91 4.966-13.845 4.952-18.727 0.014-2.469-2.441-3.886-5.849-3.886-9.37 0-3.507 1.431-6.916 3.872-9.342 2.469-2.469 5.877-3.9 9.37-3.9zM929.259 54.7c3.479 0 6.887 1.417 9.37 3.872 2.469 2.483 3.872 5.892 3.872 9.37s-1.417 6.887-3.872 9.356c-4.938 4.98-13.887 4.896-18.741 0.014-2.469-2.483-3.872-5.892-3.872-9.37s1.417-6.887 3.872-9.356c2.455-2.483 5.877-3.886 9.37-3.886zM1015.065 497.966h-171.611c-7.308 0-13.242-5.948-13.242-13.242s5.948-13.242 13.242-13.242c6.214 0 11.278-5.050 11.278-11.278v-429.042c0-41.1 33.441-74.528 74.528-74.528s74.528 33.441 74.528 74.528v429.042c0 6.214 5.050 11.278 11.278 11.278 7.308 0 13.242 5.948 13.242 13.242s-5.934 13.242-13.242 13.242zM879.49 471.482h99.538c-1.15-3.647-1.725-7.42-1.725-11.278v-195.135h-96.088v195.135c0 3.858-0.575 7.631-1.725 11.278zM881.215 173.245c0.112-0.070 0.238-0.14 0.337-0.21 5.934-3.563 13.312-8.010 27.227-8.010 13.901 0 21.308 4.447 27.241 8.010 4.391 2.637 7.042 4.236 13.635 4.236 6.551 0 9.202-1.585 13.635-4.236 3.549-2.118 7.897-4.741 13.999-6.382v-135.491c0-26.498-21.546-48.044-48.044-48.044s-48.044 21.546-48.044 48.044v142.084h0.014zM922.414 195.759c-4.391-2.637-7.070-4.236-13.621-4.236s-9.202 1.585-13.593 4.236c-3.535 2.118-7.883 4.727-13.985 6.382v36.429h96.088v-43.036l-0.365 0.224c-5.948 3.563-13.34 8.010-27.255 8.010s-21.322-4.461-27.269-8.010z" />
<glyph unicode="&#xe92d;" glyph-name="research_paper--icon" horiz-adv-x="873" d="M772.073 271.884c0 7.145-5.818 12.963-12.963 12.963h-243.549c-7.145 0-12.963-5.818-12.963-12.963 0-7.18 5.818-12.998 12.963-12.998h63.395l-46.569-28.183c-32.745-19.817-69.795-30.289-107.124-30.289-114.071 0-206.871 92.823-206.871 206.929 0 54.249 22.039 107.462 60.486 145.967l4.108 4.119 5.795 0.314c19.142 1.071 37.050 9.169 50.479 22.807l10.74 10.915 88.774-88.716c14.429-14.464 38.726-17.001 56.029-5.388l10.38 6.947 86.063-86.097c2.257-2.257 5.609-3.537 9.169-3.537 0.035 0 0.035 0 0.035 0 3.561 0 6.877 1.28 9.111 3.537l63.674 63.604c2.351 2.362 3.77 5.818 3.77 9.146 0 3.409-1.396 6.761-3.828 9.204l-86.051 86.051 7.028 10.38c4.922 7.284 7.54 15.814 7.54 24.681 0 11.846-4.62 22.993-13.021 31.36l-236.579 236.556c-13.068 13.021-34.327 16.454-50.455 8.646l-9.716-4.701-48.849 48.896c-2.269 2.269-5.725 3.409-9.169 3.409-3.456 0-6.912-1.14-9.181-3.409l-75.299-75.404c-2.49-2.479-3.793-5.655-3.793-9.169 0-3.456 1.338-6.691 3.77-9.111l48.803-48.873-4.62-9.681c-2.816-5.888-4.317-12.509-4.317-19.119 0-11.846 4.62-23.028 12.975-31.441l39.471-39.412-10.903-10.764c-9.926-9.763-17.001-21.946-20.48-35.247l-1.129-4.34-3.305-3.025c-66.863-61.347-105.239-148.468-105.239-239.057 0-110.452 55.459-212.329 148.364-272.5l33.257-21.562-39.145-6.202c-58.671-9.286-102.9-61.091-102.9-120.483 0-7.145 5.83-12.963 12.975-12.963h535.215c7.145 0 12.963 5.818 12.963 12.963 0 57.588-40.913 107.846-97.28 119.54l-36.631 7.564 31.569 20.119c46.161 29.37 84.34 69.9 110.487 117.19l4.329 7.866h45.242c7.145-0.023 12.975 5.783 12.975 12.963zM645.655 490.996l-45.219-45.231-77.999 77.952 45.242 45.242 77.975-77.964zM176.873 857.46l57.053 57.123 40.436-40.448-57.041-57.065-40.448 40.39zM216.064 762.089l-0.954 8.529c0 4.969 2.071 9.809 5.679 13.254l86.993 86.924c7.459 7.11 18.991 7.005 25.972 0l241.024-240.919 0.954-8.599c0-5.015-1.955-9.681-5.516-13.161l-91.555-91.497-8.576-0.977c-4.969 0-9.786 2.071-13.254 5.679l-96.931 96.884 0.873 7.331c0.349 2.979 0.535 5.876 0.535 8.82-0.035 42.298-34.444 76.73-76.73 76.73-2.793 0-5.725-0.186-8.89-0.535l-7.284-0.826-52.34 52.364zM284.602 685.184c28.009 0 50.793-22.784 50.793-50.793s-22.784-50.793-50.793-50.793-50.793 22.784-50.793 50.793 22.772 50.793 50.793 50.793zM579.398 82.781c39.936 0 76.16-25.193 90.1-62.662l7.622-20.503h-512.535l7.622 20.503c13.975 37.469 50.199 62.662 90.135 62.662h317.056zM668.823 234.868c-56.157-78.976-147.247-126.115-243.607-126.115-164.643 0-298.589 133.946-298.589 298.612 0 68.713 24.017 135.855 67.631 189.068l13.568 16.57 11.148-18.292c5.283-8.692 12.079-16.116 20.201-22.109l12.614-9.274-9.658-12.323c-32.058-40.879-49.711-91.892-49.711-143.639 0-128.372 104.436-232.832 232.785-232.832 65.536 0 130.863 29.615 174.767 79.209l4.515 5.132h81.385l-17.047-24.006z" />
<glyph unicode="&#xe92e;" glyph-name="term_paper--icon" horiz-adv-x="873" d="M771.991 286.057v0c-1.955 5.981-7.017 10.228-13.196 11.124l-32.605 4.701-14.569 29.51c-2.758 5.632-8.378 9.135-14.65 9.135-6.237 0-11.857-3.491-14.673-9.123l-14.545-29.521-32.617-4.724c-6.167-0.919-11.206-5.178-13.149-11.124-1.92-5.958-0.337-12.369 4.143-16.756l23.587-22.959-5.562-32.477c-1.071-6.144 1.42-12.253 6.481-15.895 2.851-2.095 6.26-3.153 9.658-3.153 2.583 0 5.155 0.617 7.494 1.862l29.231 15.348 29.172-15.313c5.551-2.909 12.137-2.455 17.199 1.233 5.062 3.654 7.54 9.786 6.505 16l-5.574 32.442 23.564 22.982c4.468 4.352 6.039 10.764 4.108 16.71zM730.624 258.735c-3.84-3.759-5.574-9.169-4.655-14.452l5.097-29.452-26.449 13.905c-2.362 1.233-5.004 1.85-7.61 1.85s-5.19-0.605-7.494-1.815l-26.449-13.929 5.027 29.44c0.896 5.306-0.861 10.705-4.713 14.441l-21.388 20.783 29.51 4.34c5.318 0.78 9.937 4.119 12.346 8.948l13.137 26.752 13.231-26.717c2.385-4.841 6.982-8.192 12.323-8.972l29.533-4.282-21.446-20.841zM587.043 487.424h-68.655c-6.237 0-11.311-5.073-11.311-11.311s5.073-11.311 11.311-11.311h68.655c6.237 0 11.311 5.073 11.311 11.311s-5.073 11.311-11.311 11.311zM421.504 487.424h-230.982c-6.237 0-11.311-5.073-11.311-11.311s5.073-11.311 11.311-11.311h230.982c6.237 0 11.311 5.073 11.311 11.311s-5.073 11.311-11.311 11.311zM587.043 590.86h-400.838c-6.237 0-11.311-5.073-11.311-11.311 0-6.225 5.073-11.276 11.311-11.276h400.838c6.237 0 11.311 5.062 11.311 11.276 0 6.249-5.073 11.311-11.311 11.311zM421.504 379.473h-230.982c-6.237 0-11.311-5.073-11.311-11.311s5.073-11.311 11.311-11.311h230.982c6.237 0 11.311 5.073 11.311 11.311s-5.073 11.311-11.311 11.311zM849.548 267.648c0 75.299-54.051 138.554-128.5 150.423l-8.087 1.28v485.423c0 5.911-4.817 10.717-10.74 10.717h-432.442c-2.804 0-5.551-1.14-7.552-3.119l-198.761-196.876c-2.013-1.99-3.165-4.759-3.165-7.622v-644.945c0-5.911 4.806-10.705 10.717-10.705h523.811l-2.63-54.039c0.012-5.574 3.491-11.031 8.867-13.475 5.551-2.595 11.66-1.571 16.244 2.351l79.709 68.655 79.756-68.713c4.352-3.689 10.985-4.689 16.198-2.327 5.469 2.502 8.844 8.169 8.809 14.778l-7.389 150.935 3.456 3.060c32.861 29.126 51.7 70.761 51.7 114.199zM257.85 873.949v-156.009h-156.055l156.055 156.009zM596.073 76.847l-511.151 0.023v618.438h185.309c8.343 0 12.23 7.284 12.23 12.207v183.377h407.843v-470.633l-8.646-0.873c-78.208-7.843-137.181-73.076-137.181-151.738 0-43.45 18.839-85.062 51.7-114.141l3.444-3.060-3.549-73.6zM707.153 72.972c-5.783 5.411-14.487 5.481-20.236 0.093l-74.74-64.384 6.412 127.593 12.998-6.202c41.588-19.84 89.425-19.793 130.781 0.023l13.009 6.237 6.423-127.616-74.647 64.256zM696.972 134.807c-73.251 0-132.841 59.59-132.841 132.841s59.59 132.841 132.841 132.841c73.263 0 132.876-59.59 132.876-132.841s-59.613-132.841-132.876-132.841z" />
<glyph unicode="&#xe92f;" glyph-name="lapki_2" d="M0 832v-384h256c0-141.12-114.752-256-256-256v-128c211.744 0 384 172.256 384 384v384h-384zM640 832v-384h256c0-141.12-114.752-256-256-256v-128c211.744 0 384 172.256 384 384v384h-384z" />
<glyph unicode="&#xe930;" glyph-name="lapki_1" d="M1024 64v384h-256c0 141.12 114.752 256 256 256v128c-211.744 0-384-172.256-384-384v-384h384zM384 64v384h-256c0 141.12 114.752 256 256 256v128c-211.744 0-384-172.256-384-384v-384h384z" />
</font>
</defs>
</svg>
