<?xml version="1.0" encoding="utf-8"?>
<!-- Generator: Adobe Illustrator 21.0.0, SVG Export Plug-In . SVG Version: 6.00 Build 0)  -->
<svg version="1.1" id="Layer_2" xmlns="http://www.w3.org/2000/svg" xmlns:xlink="http://www.w3.org/1999/xlink" x="0px" y="0px"
	 viewBox="0 0 36 48" style="enable-background:new 0 0 36 48;" xml:space="preserve">
<style type="text/css">
	.st0{fill:url(#SVGID_1_);}
	.st1{opacity:0.7;fill:url(#SVGID_2_);}
	.st2{fill:url(#SVGID_3_);}
	.st3{opacity:0.4;}
	.st4{fill:#3F4040;fill-opacity:0;}
	.st5{opacity:0.0046;fill:#3F4040;enable-background:new    ;}
	.st6{opacity:0.0092;fill:#3F4040;enable-background:new    ;}
	.st7{opacity:0.0138;fill:#3F4040;enable-background:new    ;}
	.st8{opacity:0.0185;fill:#3F4040;enable-background:new    ;}
	.st9{opacity:0.0231;fill:#3F4040;enable-background:new    ;}
	.st10{opacity:0.0277;fill:#3F4040;enable-background:new    ;}
	.st11{opacity:0.0323;fill:#3F4040;enable-background:new    ;}
	.st12{opacity:0.0369;fill:#3F4040;enable-background:new    ;}
	.st13{opacity:0.0415;fill:#3F4040;enable-background:new    ;}
	.st14{opacity:0.0462;fill:#3F4040;enable-background:new    ;}
	.st15{opacity:0.0508;fill:#3F4040;enable-background:new    ;}
	.st16{opacity:0.0554;fill:#3F4040;enable-background:new    ;}
	.st17{opacity:0.06;fill:#3F4040;enable-background:new    ;}
	.st18{opacity:0.0646;fill:#3F4040;enable-background:new    ;}
	.st19{opacity:0.0692;fill:#3F4040;enable-background:new    ;}
	.st20{opacity:0.0738;fill:#3F4040;enable-background:new    ;}
	.st21{opacity:0.0785;fill:#3F4040;enable-background:new    ;}
	.st22{opacity:0.0831;fill:#3F4040;enable-background:new    ;}
	.st23{opacity:0.0877;fill:#3F4040;enable-background:new    ;}
	.st24{opacity:0.0923;fill:#3F4040;enable-background:new    ;}
	.st25{opacity:0.0969;fill:#3F4040;enable-background:new    ;}
	.st26{opacity:0.1015;fill:#3F4040;enable-background:new    ;}
	.st27{opacity:0.1062;fill:#3F4040;enable-background:new    ;}
	.st28{opacity:0.1108;fill:#3F4040;enable-background:new    ;}
	.st29{opacity:0.1154;fill:#3F4040;enable-background:new    ;}
	.st30{opacity:0.12;fill:#3F4040;enable-background:new    ;}
</style>
<g id="logo">
	<g>
		
			<linearGradient id="SVGID_1_" gradientUnits="userSpaceOnUse" x1="5.1336" y1="412.671" x2="31.7107" y2="412.671" gradientTransform="matrix(1 0 0 -1 0 422.3347)">
			<stop  offset="0" style="stop-color:#FF6464"/>
			<stop  offset="0.1783" style="stop-color:#FF8354"/>
			<stop  offset="0.3923" style="stop-color:#FFA044"/>
			<stop  offset="0.6035" style="stop-color:#FFB638"/>
			<stop  offset="0.8084" style="stop-color:#FFC331"/>
			<stop  offset="1" style="stop-color:#FFC72F"/>
		</linearGradient>
		<path class="st0" d="M23.489,18.363H5.134V3.163c0-1.214,0.984-2.199,2.199-2.199h16.157c4.541,0,8.222,3.681,8.222,8.222v0.956
			C31.711,14.682,28.03,18.363,23.489,18.363z"/>
		
			<linearGradient id="SVGID_2_" gradientUnits="userSpaceOnUse" x1="1.8351" y1="413.3044" x2="24.9706" y2="399.9681" gradientTransform="matrix(1 0 0 -1 0 422.3347)">
			<stop  offset="0" style="stop-color:#5F31D1"/>
			<stop  offset="1" style="stop-color:#FF6464"/>
		</linearGradient>
		<path class="st1" d="M28.172,16.895l-0.263,0.172c-1.277,0.817-2.791,1.297-4.42,1.297H5.134V4.802L28.258,16.83
			C28.229,16.851,28.202,16.874,28.172,16.895z"/>
		
			<linearGradient id="SVGID_3_" gradientUnits="userSpaceOnUse" x1="5.1337" y1="402.1335" x2="32.3536" y2="402.1335" gradientTransform="matrix(1 0 0 -1 0 422.3347)">
			<stop  offset="0" style="stop-color:#0965CD"/>
			<stop  offset="0.1321" style="stop-color:#1E75D4"/>
			<stop  offset="0.3692" style="stop-color:#3E8DDF"/>
			<stop  offset="0.5982" style="stop-color:#559EE8"/>
			<stop  offset="0.8131" style="stop-color:#63A8EC"/>
			<stop  offset="1" style="stop-color:#68ACEE"/>
		</linearGradient>
		<path class="st2" d="M32.354,27.022c0,4.884-3.959,8.844-8.844,8.844H7.505c-1.203,0-2.186-0.899-2.34-2.06l-0.031,0.013v-0.325
			V18.131V4.537l21.95,14.357c0,0,4.269,1.991,5.203,7.278C32.336,26.45,32.354,26.739,32.354,27.022L32.354,27.022z"/>
	</g>
	<g id="shadow" class="st3">
		<ellipse class="st4" cx="18" cy="42.905" rx="16.737" ry="2.247"/>
		<ellipse class="st5" cx="18" cy="42.872" rx="16.117" ry="2.171"/>
		<ellipse class="st6" cx="18" cy="42.841" rx="15.497" ry="2.095"/>
		<ellipse class="st7" cx="18" cy="42.808" rx="14.877" ry="2.02"/>
		<ellipse class="st8" cx="18" cy="42.777" rx="14.257" ry="1.944"/>
		<ellipse class="st9" cx="18" cy="42.744" rx="13.638" ry="1.868"/>
		<ellipse class="st10" cx="18" cy="42.712" rx="13.018" ry="1.793"/>
		<ellipse class="st11" cx="18" cy="42.68" rx="12.398" ry="1.717"/>
		<ellipse class="st12" cx="18" cy="42.648" rx="11.778" ry="1.641"/>
		<ellipse class="st13" cx="18" cy="42.615" rx="11.158" ry="1.566"/>
		<ellipse class="st14" cx="18" cy="42.584" rx="10.539" ry="1.49"/>
		<ellipse class="st15" cx="18" cy="42.551" rx="9.919" ry="1.415"/>
		<ellipse class="st16" cx="18" cy="42.52" rx="9.299" ry="1.339"/>
		<ellipse class="st17" cx="18" cy="42.487" rx="8.68" ry="1.263"/>
		<ellipse class="st18" cx="18" cy="42.455" rx="8.06" ry="1.188"/>
		<ellipse class="st19" cx="18" cy="42.423" rx="7.44" ry="1.112"/>
		<ellipse class="st20" cx="18" cy="42.391" rx="6.82" ry="1.036"/>
		<ellipse class="st21" cx="18" cy="42.358" rx="6.2" ry="0.96"/>
		<ellipse class="st22" cx="18" cy="42.327" rx="5.58" ry="0.884"/>
		<ellipse class="st23" cx="18" cy="42.294" rx="4.961" ry="0.808"/>
		<ellipse class="st24" cx="18" cy="42.263" rx="4.341" ry="0.733"/>
		<ellipse class="st25" cx="18" cy="42.231" rx="3.721" ry="0.657"/>
		<ellipse class="st26" cx="18" cy="42.198" rx="3.101" ry="0.582"/>
		<ellipse class="st27" cx="18" cy="42.167" rx="2.481" ry="0.506"/>
		<ellipse class="st28" cx="18" cy="42.134" rx="1.862" ry="0.43"/>
		<ellipse class="st29" cx="18" cy="42.102" rx="1.242" ry="0.355"/>
		<ellipse class="st30" cx="18" cy="42.07" rx="0.622" ry="0.279"/>
	</g>
</g>
<g>
</g>
<g>
</g>
<g>
</g>
<g>
</g>
<g>
</g>
<g>
</g>
<g>
</g>
<g>
</g>
<g>
</g>
<g>
</g>
<g>
</g>
<g>
</g>
<g>
</g>
<g>
</g>
<g>
</g>
</svg>
